{"glyphs":{"0":{"ha":863,"x_min":0,"x_max":0,"o":"m 774 464 b 432 -18 774 225 721 -18 b 90 464 140 -18 90 224 b 432 946 90 704 140 946 b 774 464 721 946 774 703 m 592 464 b 557 724 592 533 586 660 b 432 789 535 775 483 789 b 306 724 381 789 328 774 b 272 464 278 661 272 532 b 306 204 272 396 278 267 b 432 139 328 154 381 139 b 557 204 483 139 535 153 b 592 464 586 268 592 394 "},"1":{"ha":850,"x_min":0,"x_max":0,"o":"m 554 61 b 499 0 554 22 540 0 l 450 0 b 376 61 401 0 376 7 l 376 751 b 278 713 360 743 294 713 b 242 736 261 713 244 718 b 231 808 238 758 231 785 b 274 857 231 835 251 847 b 499 928 335 885 432 928 b 554 869 535 928 554 904 l 554 61 "},"2":{"ha":860,"x_min":0,"x_max":0,"o":"m 713 57 b 651 0 713 15 690 0 l 157 0 b 100 104 88 0 100 53 b 183 231 100 156 151 196 l 315 368 b 413 475 347 403 382 438 b 522 689 461 535 522 608 b 421 790 522 769 501 790 b 276 778 372 790 324 786 b 207 765 254 774 229 765 b 163 803 182 765 167 778 b 151 876 158 826 151 853 b 208 929 151 913 178 925 b 421 946 278 940 350 946 b 707 713 579 946 707 890 b 639 485 707 632 681 553 b 322 150 567 367 425 244 b 651 160 432 156 542 160 b 713 57 721 160 713 107 "},"3":{"ha":860,"x_min":0,"x_max":0,"o":"m 719 281 b 410 -18 719 74 613 -18 b 103 74 356 -18 103 4 b 125 156 103 99 118 132 b 168 192 131 175 146 192 b 189 189 175 192 182 190 b 415 140 269 164 329 140 b 540 278 514 140 540 185 b 443 390 540 351 514 379 b 276 397 389 399 332 397 b 197 439 246 397 197 397 l 197 504 b 247 547 197 536 218 547 l 336 547 b 506 689 460 547 506 557 b 378 794 506 781 463 794 b 265 786 340 794 303 792 b 201 775 246 782 221 775 b 171 792 190 775 174 778 b 151 893 165 818 151 868 b 172 924 151 908 161 915 b 374 946 194 940 343 946 b 682 700 549 946 682 899 b 601 501 682 619 664 554 b 719 281 697 456 719 382 "},"4":{"ha":846,"x_min":0,"x_max":0,"o":"m 650 61 b 553 0 650 -8 608 0 b 481 61 504 0 481 7 l 481 228 l 140 228 b 101 249 125 228 107 232 l 78 324 b 74 349 75 332 74 340 b 92 392 74 365 82 379 l 472 899 b 518 928 483 914 499 928 l 594 928 b 650 869 631 928 650 904 l 650 388 b 746 322 711 388 746 393 b 650 228 746 231 738 228 m 481 675 l 258 374 b 481 383 332 378 407 381 "},"5":{"ha":860,"x_min":0,"x_max":0,"o":"m 724 290 b 418 -18 724 94 615 -18 b 161 26 361 -18 210 0 b 133 64 146 35 133 44 b 146 136 133 88 142 114 b 192 186 150 160 164 186 b 283 160 207 186 264 165 b 417 138 326 147 372 138 b 546 294 515 138 546 206 b 524 406 546 326 539 376 b 399 440 504 443 433 440 b 307 433 368 440 338 438 b 226 425 281 431 253 425 b 174 475 196 425 172 442 l 174 481 l 204 865 b 264 928 207 908 218 928 l 649 928 b 708 833 715 928 708 885 b 649 768 708 790 697 768 b 363 771 553 768 458 769 l 344 590 b 424 593 371 593 397 593 b 550 583 465 593 510 592 b 724 290 685 554 724 411 "},"6":{"ha":861,"x_min":0,"x_max":0,"o":"m 743 290 b 417 -18 743 72 628 -18 b 215 31 347 -18 275 -8 b 103 339 108 99 103 224 b 142 750 103 468 107 625 b 447 946 185 903 300 946 b 625 938 507 946 567 943 b 692 875 674 933 692 928 l 692 831 b 643 781 692 799 675 781 b 561 789 617 781 588 788 b 428 794 517 793 472 794 b 325 742 383 794 344 785 b 292 571 306 699 296 618 b 465 593 349 583 407 593 b 743 290 672 593 743 489 m 565 301 b 458 439 565 382 550 439 b 286 411 403 439 339 428 b 282 303 285 375 282 339 b 433 138 282 183 307 138 b 565 301 551 138 565 194 "},"7":{"ha":860,"x_min":0,"x_max":0,"o":"m 738 872 b 732 842 738 863 736 850 l 414 88 b 333 0 399 51 379 0 l 263 0 b 211 40 238 0 211 11 b 233 101 211 56 228 88 l 518 775 b 210 768 415 771 313 768 b 151 871 140 768 151 821 b 210 928 151 911 171 928 l 669 928 b 738 872 719 928 738 926 "},"8":{"ha":861,"x_min":0,"x_max":0,"o":"m 750 249 b 431 -18 750 28 626 -18 b 111 249 236 -18 111 32 b 265 467 111 375 161 408 b 131 701 164 535 131 578 b 431 946 131 911 240 946 b 732 701 621 946 732 913 b 589 469 732 589 681 528 b 750 249 686 415 750 369 m 554 699 b 446 799 554 799 542 799 l 415 799 b 308 699 317 799 308 797 b 425 543 308 607 357 588 b 554 699 493 585 554 606 m 572 244 b 432 388 572 324 492 356 b 289 244 378 354 289 319 b 408 131 289 150 321 131 l 453 131 b 572 244 540 131 572 150 "},"9":{"ha":861,"x_min":0,"x_max":0,"o":"m 761 508 b 397 -18 761 224 754 -18 b 156 21 338 -18 208 -4 b 122 67 133 31 122 40 b 146 149 122 90 136 126 b 183 179 154 168 161 179 b 263 154 197 179 246 160 b 421 135 313 139 368 135 b 576 382 588 135 572 257 b 404 356 519 365 463 356 b 124 635 219 356 124 450 b 436 946 124 846 225 946 b 761 508 728 946 761 758 m 578 543 b 571 665 578 583 576 625 b 431 796 560 757 528 796 b 301 638 317 796 301 742 b 411 513 301 547 317 513 b 578 543 468 513 525 524 "}," ":{"ha":313,"x_min":0,"x_max":0,"o":""},"!":{"ha":418,"x_min":0,"x_max":0,"o":"m 288 347 b 232 285 286 308 274 285 l 194 285 b 132 347 142 285 133 296 l 121 868 l 121 871 b 182 928 121 914 142 928 l 243 928 b 299 868 279 928 300 903 m 213 -37 b 190 -28 204 -37 196 -33 l 94 67 b 85 89 89 72 85 81 b 94 113 85 99 89 107 l 190 208 b 211 218 196 214 204 218 b 233 208 219 218 228 214 l 329 113 b 339 89 335 107 339 99 b 329 67 339 81 335 72 l 233 -28 b 211 -37 228 -33 219 -37 "},"\"":{"ha":519,"x_min":0,"x_max":0,"o":"m 365 793 b 306 846 326 793 310 806 l 292 1001 l 292 1010 b 353 1054 289 1047 321 1054 l 400 1054 b 457 1006 429 1054 458 1038 l 457 1001 l 443 846 b 388 793 440 808 426 793 m 136 793 b 75 846 97 793 79 806 l 61 1001 l 61 1010 b 122 1054 58 1047 90 1054 l 171 1054 b 226 1006 200 1054 228 1038 l 226 1001 l 213 846 b 157 793 210 808 196 793 "},"#":{"ha":824,"x_min":0,"x_max":0,"o":"m 750 533 l 657 533 l 624 388 l 714 388 l 683 263 l 593 263 l 542 43 l 399 43 l 451 263 l 283 263 l 231 43 l 85 43 l 139 263 l 44 263 l 75 388 l 168 388 l 203 533 l 110 533 l 140 658 l 232 658 l 285 876 l 428 876 l 378 658 l 547 658 l 597 876 l 740 876 l 688 658 l 781 658 m 347 533 l 314 388 l 482 388 l 515 533 "},"$":{"ha":817,"x_min":0,"x_max":0,"o":"m 675 286 b 649 92 675 231 674 140 b 424 -11 607 11 506 -6 l 424 -97 b 393 -137 424 -122 421 -137 l 371 -137 b 344 -97 340 -137 344 -124 l 344 -12 b 168 -3 286 -11 226 -10 b 96 46 135 1 96 4 l 96 93 b 149 160 96 136 100 160 b 344 149 214 160 279 150 l 344 400 b 269 433 319 411 294 422 b 96 689 129 494 96 535 b 233 915 96 796 128 876 b 344 938 269 928 306 936 l 344 1025 b 393 1063 344 1067 358 1063 b 424 1025 415 1063 424 1044 l 424 938 b 583 931 476 938 531 936 b 657 882 617 926 657 925 l 657 836 b 603 769 657 792 651 769 b 453 778 553 769 503 778 l 424 778 l 424 549 b 661 394 494 519 629 472 b 675 286 674 361 675 321 m 344 778 b 268 701 283 778 268 761 l 268 676 b 344 581 268 611 288 604 m 503 263 b 424 367 503 338 490 339 l 424 150 b 503 236 488 153 503 172 "},"%":{"ha":1178,"x_min":0,"x_max":0,"o":"m 1136 228 b 925 -18 1136 83 1085 -18 b 719 226 768 -18 719 85 b 926 472 719 368 769 472 b 1136 228 1085 472 1136 371 m 906 921 b 900 901 906 914 903 907 l 394 -32 b 356 -56 386 -47 372 -56 b 340 -53 350 -56 344 -56 l 286 -21 b 274 8 276 -15 274 -3 b 278 28 274 15 275 22 l 785 961 b 822 985 793 975 806 985 b 892 950 843 985 872 961 b 906 921 901 944 906 932 m 446 701 b 235 456 446 557 394 456 b 31 701 76 456 31 561 b 236 946 31 843 79 946 b 446 701 394 946 446 844 m 1006 226 b 989 340 1006 257 1004 314 b 928 363 976 361 950 363 b 865 340 907 363 876 361 b 850 226 851 314 850 256 b 865 113 850 197 851 139 b 928 90 876 92 907 90 b 989 113 949 90 978 92 b 1006 226 1003 140 1006 196 m 317 700 b 299 815 317 731 314 788 b 238 838 286 836 260 838 b 176 815 217 838 188 838 b 160 701 163 788 160 732 b 176 588 160 671 163 615 b 238 565 188 565 217 565 b 299 588 258 565 288 567 b 317 700 314 615 317 669 "},"&":{"ha":976,"x_min":0,"x_max":0,"o":"m 896 74 b 883 44 896 61 892 54 b 811 -18 869 28 833 -18 b 699 68 790 -18 715 51 b 438 -22 633 -7 532 -22 b 96 229 257 -22 96 10 b 263 504 96 369 139 440 b 157 735 201 571 157 640 b 415 944 157 893 274 944 b 696 731 575 944 696 917 b 496 472 696 597 599 536 b 664 294 547 410 604 349 b 686 410 675 332 681 371 b 690 450 688 424 688 438 b 738 489 696 481 707 489 l 786 489 b 829 433 826 489 829 469 b 775 193 829 360 808 258 b 896 74 797 174 896 99 m 529 731 b 415 801 529 804 474 801 b 328 722 351 801 328 789 b 404 575 328 668 367 611 b 529 731 476 610 529 643 m 585 169 b 367 393 507 239 436 317 b 271 239 289 347 271 333 b 438 125 271 115 335 125 b 585 169 489 125 549 126 "},"’":{"ha":361,"x_min":0,"x_max":0,"o":"m 315 926 b 204 719 315 896 226 756 b 149 685 190 697 175 685 b 56 743 124 685 56 714 b 71 789 56 757 64 776 l 142 921 b 207 967 158 951 169 967 l 260 967 b 315 926 285 967 315 956 "},"(":{"ha":435,"x_min":0,"x_max":0,"o":"m 444 -189 b 168 -61 331 -186 228 -171 b 92 463 97 71 92 313 b 168 986 92 613 97 854 b 444 1117 228 1096 329 1114 l 444 954 b 285 822 340 954 308 919 b 257 464 257 706 257 583 b 285 106 257 344 257 222 b 444 -26 308 8 340 -26 l 444 -189 "},")":{"ha":436,"x_min":0,"x_max":0,"o":"m 344 463 b 267 -61 344 313 338 71 b -10 -189 207 -171 104 -186 l -10 -26 b 151 106 93 -26 128 8 b 179 464 179 222 179 344 b 151 822 179 583 179 706 b -10 954 128 919 93 954 l -10 1117 b 267 986 106 1114 207 1096 b 344 463 338 854 344 613 "},"*":{"ha":529,"x_min":0,"x_max":0,"o":"m 453 810 b 364 743 453 763 400 756 l 410 697 b 425 660 419 688 425 674 b 344 583 425 628 375 583 b 300 617 324 583 310 600 l 265 681 l 231 617 b 186 583 221 600 207 583 b 106 661 156 583 106 628 b 119 697 106 674 111 688 l 164 746 b 78 811 128 757 78 763 b 83 843 78 822 81 833 b 133 907 92 868 100 907 b 206 869 156 907 189 881 b 199 931 203 889 199 910 b 282 985 199 983 240 985 b 332 933 315 985 332 965 b 328 875 332 914 329 894 b 397 906 346 885 376 906 b 447 843 431 906 439 868 b 453 810 450 832 453 821 "},"+":{"ha":771,"x_min":0,"x_max":0,"o":"m 461 289 l 461 54 l 308 54 l 308 289 l 65 289 l 65 432 l 308 432 l 308 665 l 461 665 l 461 432 l 704 432 l 704 289 "},",":{"ha":414,"x_min":0,"x_max":0,"o":"m 342 97 b 153 -235 342 39 193 -176 b 115 -262 144 -247 132 -262 b 89 -253 104 -262 97 -258 b 40 -207 74 -243 40 -228 b 129 -79 40 -190 117 -96 b 174 -7 146 -56 161 -33 l 90 71 b 81 93 83 76 81 85 b 90 118 81 103 85 111 l 183 222 b 206 232 189 229 197 232 b 229 222 214 232 222 228 l 332 125 b 342 97 340 118 342 108 "},"-":{"ha":646,"x_min":0,"x_max":0,"o":"m 579 354 b 515 303 579 307 558 303 l 128 303 b 67 344 96 303 67 306 l 67 408 b 128 446 67 439 104 446 l 515 446 b 579 408 542 446 579 443 l 579 354 "},".":{"ha":418,"x_min":0,"x_max":0,"o":"m 213 -37 b 190 -28 204 -37 196 -33 l 94 67 b 85 89 89 72 85 81 b 94 113 85 99 89 107 l 190 208 b 211 218 196 214 204 218 b 233 208 219 218 228 214 l 329 113 b 339 89 335 107 339 99 b 329 67 339 81 335 72 l 233 -28 b 213 -37 228 -33 219 -37 "},"/":{"ha":507,"x_min":0,"x_max":0,"o":"m 128 -42 b 57 -14 106 -42 76 -22 b 21 21 42 -7 21 1 b 33 61 21 33 28 50 l 413 957 b 453 990 419 975 432 990 b 528 960 476 990 510 969 b 556 924 543 953 556 942 b 547 889 556 911 551 900 l 169 -7 b 128 -42 163 -25 149 -42 "},":":{"ha":403,"x_min":0,"x_max":0,"o":"m 204 339 b 182 349 196 339 188 343 l 86 444 b 76 468 81 450 76 458 b 86 490 76 476 81 485 l 182 586 b 203 596 188 592 196 596 b 225 586 211 596 219 592 l 321 490 b 331 468 326 485 331 476 b 321 444 331 458 326 450 l 225 349 b 204 339 219 343 211 339 m 204 -37 b 182 -28 196 -37 188 -33 l 86 67 b 76 89 81 72 76 81 b 86 113 76 99 81 107 l 182 208 b 203 218 188 214 196 218 b 225 208 211 218 219 214 l 321 113 b 331 89 326 107 331 99 b 321 67 331 81 326 72 l 225 -28 b 204 -37 219 -33 211 -37 "},";":{"ha":414,"x_min":0,"x_max":0,"o":"m 211 336 b 189 346 203 336 194 340 l 93 442 b 83 465 88 447 83 456 b 93 488 83 474 88 482 l 189 583 b 210 593 194 589 203 593 b 232 583 218 593 226 589 l 328 488 b 338 465 333 482 338 474 b 328 442 338 456 333 447 l 232 346 b 211 336 226 340 218 336 m 342 97 b 153 -235 342 39 193 -176 b 115 -262 144 -247 132 -262 b 89 -253 104 -262 97 -258 b 40 -207 74 -243 40 -228 b 129 -79 40 -190 117 -96 b 174 -7 146 -56 161 -33 l 90 71 b 81 93 83 76 81 85 b 90 118 81 103 85 111 l 183 222 b 206 232 189 229 197 232 b 229 222 214 232 222 228 l 332 125 b 342 97 340 118 342 108 "},"<":{"ha":969,"x_min":0,"x_max":0,"o":"m 69 390 l 69 501 l 878 818 l 878 654 l 335 446 l 878 238 l 878 74 "},"=":{"ha":697,"x_min":0,"x_max":0,"o":"m 65 418 l 65 544 l 631 544 l 631 418 m 65 179 l 65 304 l 631 304 l 631 179 "},">":{"ha":968,"x_min":0,"x_max":0,"o":"m 92 74 l 92 238 l 635 446 l 92 654 l 92 818 l 899 501 l 899 390 "},"?":{"ha":699,"x_min":0,"x_max":0,"o":"m 611 724 b 403 425 611 582 490 515 b 358 324 369 390 358 374 b 308 285 358 288 340 285 l 258 285 b 206 376 192 285 206 325 b 429 715 206 519 429 581 b 335 797 429 781 396 797 b 161 775 276 797 218 786 b 131 771 151 774 140 771 b 97 794 115 771 100 778 b 82 889 93 822 82 863 b 131 931 82 918 107 926 b 342 947 200 942 271 947 b 611 724 499 947 611 897 m 294 -37 b 272 -28 286 -37 278 -33 l 176 67 b 167 89 171 72 167 81 b 176 113 167 99 171 107 l 272 208 b 293 218 278 214 286 218 b 315 208 301 218 310 214 l 411 113 b 421 89 417 107 421 99 b 411 67 421 81 417 72 l 315 -28 b 293 -37 310 -33 301 -37 "},"@":{"ha":1463,"x_min":0,"x_max":0,"o":"m 1349 314 b 1074 -29 1349 131 1281 -29 b 869 72 999 -29 914 11 b 626 -18 792 13 725 -18 b 428 183 493 -18 428 51 b 654 394 428 333 521 379 b 831 406 713 401 772 406 b 760 535 831 461 835 535 b 556 506 692 535 622 519 b 529 501 547 504 538 501 b 486 583 478 501 486 549 b 526 640 486 618 494 628 b 753 667 560 653 713 667 b 953 604 821 667 904 656 b 1004 386 1007 547 1004 460 l 1004 288 b 1082 113 1004 226 993 113 b 1172 286 1174 113 1172 218 b 761 821 1172 600 1131 821 b 293 306 375 821 293 667 b 699 -161 293 21 389 -161 b 967 -111 793 -161 878 -140 b 989 -106 974 -108 982 -106 b 1019 -126 1004 -106 1014 -112 b 1047 -206 1028 -144 1047 -186 b 1004 -249 1047 -232 1025 -240 b 679 -301 918 -282 772 -301 b 114 325 279 -301 114 -50 b 756 958 114 757 326 958 b 1349 314 1186 958 1349 722 m 838 176 b 831 285 831 210 831 250 b 763 288 808 286 785 288 b 681 283 735 288 708 288 b 594 199 622 278 594 260 b 646 108 594 165 601 108 b 838 176 715 108 781 138 "},"A":{"ha":872,"x_min":0,"x_max":0,"o":"m 847 42 b 797 0 847 11 825 0 l 721 0 b 656 49 683 0 668 15 l 594 222 b 269 222 486 219 378 219 l 214 58 b 79 0 189 -17 151 0 b 25 33 53 0 25 1 b 36 76 25 44 32 65 l 321 871 b 460 933 349 947 386 933 b 542 872 508 933 525 917 l 842 63 b 847 42 844 56 847 49 m 431 693 l 319 365 l 542 365 "},"B":{"ha":831,"x_min":0,"x_max":0,"o":"m 749 276 b 683 71 749 203 735 128 b 450 0 624 6 532 0 l 183 0 b 117 61 138 0 117 13 l 117 871 b 183 928 117 918 142 928 l 364 928 b 596 903 433 928 532 935 b 703 686 678 863 703 772 b 626 503 703 611 686 551 b 749 276 726 461 749 376 m 525 671 b 407 775 525 767 494 775 b 303 772 372 775 338 774 l 303 531 l 376 531 b 525 671 490 531 525 549 m 564 276 b 511 376 564 321 560 364 b 385 386 471 386 426 386 l 303 386 l 303 156 b 403 153 336 154 369 153 b 499 161 435 153 468 154 b 564 276 556 174 564 226 "},"C":{"ha":785,"x_min":0,"x_max":0,"o":"m 718 38 b 646 -11 718 -6 681 -8 b 488 -18 593 -17 540 -18 b 88 453 153 -18 88 146 b 269 906 88 611 99 833 b 488 938 336 933 417 938 b 646 931 540 938 593 936 b 718 882 681 928 718 925 l 718 836 b 665 769 718 793 714 769 b 515 776 615 769 565 776 b 364 757 474 776 401 774 b 279 451 267 715 279 538 b 408 150 279 343 271 176 b 515 143 443 143 481 143 b 665 150 565 143 615 150 b 718 38 733 150 718 90 "},"D":{"ha":904,"x_min":0,"x_max":0,"o":"m 819 454 b 418 0 819 151 749 0 l 176 0 b 108 61 131 0 108 13 l 108 871 b 176 928 108 918 136 928 l 418 928 b 636 899 489 928 569 925 b 819 454 810 831 819 613 m 629 451 b 542 747 629 540 640 704 b 392 767 504 764 433 767 b 294 763 358 767 326 765 l 294 165 b 392 161 326 163 358 161 b 492 168 425 161 458 163 b 624 328 585 185 613 239 b 629 451 629 368 629 410 "},"E":{"ha":747,"x_min":0,"x_max":0,"o":"m 665 57 b 606 0 665 15 644 0 l 176 0 b 108 61 131 0 108 13 l 108 871 b 176 928 108 918 135 928 l 606 928 b 665 833 672 928 665 886 b 606 768 665 790 653 768 b 294 772 501 768 399 769 l 294 556 b 575 560 388 557 482 560 b 635 475 636 560 635 522 b 575 410 635 432 622 410 b 294 414 482 410 388 413 l 294 156 b 606 160 399 158 501 160 b 665 57 675 160 665 107 "},"F":{"ha":694,"x_min":0,"x_max":0,"o":"m 639 833 b 579 768 639 792 625 768 b 294 772 485 768 389 769 l 294 557 b 553 560 381 558 467 560 b 611 475 614 560 611 521 b 553 410 611 432 600 410 b 294 414 467 410 381 413 l 294 61 b 236 0 294 21 278 0 l 176 0 b 108 61 131 0 108 13 l 108 871 b 176 928 108 918 135 928 l 579 928 b 639 833 646 928 639 885 "},"G":{"ha":860,"x_min":0,"x_max":0,"o":"m 767 81 b 707 8 767 36 747 21 b 488 -18 643 -12 554 -18 b 88 453 153 -18 88 146 b 269 906 88 611 99 833 b 488 938 336 933 417 938 b 693 928 556 938 626 938 b 764 879 726 924 764 921 l 764 832 b 711 765 764 789 760 765 b 515 776 646 765 581 776 b 364 757 474 776 401 774 b 279 451 267 715 279 538 b 408 150 279 343 271 176 b 515 143 443 143 481 143 b 581 151 538 143 560 147 l 581 410 l 450 410 b 390 494 389 410 390 447 b 450 560 390 538 403 560 l 707 560 b 767 501 747 560 767 542 l 767 81 "},"H":{"ha":925,"x_min":0,"x_max":0,"o":"m 815 61 b 697 0 815 -14 751 0 b 631 61 651 0 631 13 l 631 421 b 294 421 519 418 406 418 l 294 61 b 176 0 294 -14 232 0 b 108 61 131 0 108 13 l 108 871 b 176 928 108 918 135 928 l 236 928 b 294 871 276 928 294 911 l 294 569 b 631 569 406 572 519 572 l 631 871 b 697 928 631 918 656 928 l 756 928 b 815 871 794 928 815 911 l 815 61 "},"I":{"ha":415,"x_min":0,"x_max":0,"o":"m 301 61 b 242 0 301 21 283 0 l 182 0 b 115 61 136 0 115 13 l 115 871 b 182 928 115 918 140 928 l 242 928 b 301 871 281 928 301 911 l 301 61 "},"J":{"ha":497,"x_min":0,"x_max":0,"o":"m 410 440 b 406 249 410 376 410 311 b 94 -10 392 54 279 -10 b -6 14 72 -10 10 -6 b -18 111 -24 38 -18 83 b 29 158 -18 138 3 158 b 108 153 56 158 82 153 b 206 193 146 153 188 154 b 224 414 226 238 224 367 l 224 771 b 121 768 189 769 156 768 b 61 871 51 768 61 821 b 121 928 61 913 81 928 l 351 928 b 410 871 392 928 410 911 l 410 440 "},"K":{"ha":840,"x_min":0,"x_max":0,"o":"m 811 40 b 760 0 811 11 786 0 l 664 0 b 582 36 626 0 607 8 l 294 344 l 294 61 b 176 0 294 -14 233 0 b 108 61 131 0 108 13 l 108 871 b 176 928 108 918 135 928 b 294 871 229 928 294 943 l 294 554 l 581 890 b 658 928 604 918 621 928 l 729 928 b 781 889 754 928 781 918 b 765 853 781 876 774 863 l 419 464 l 789 88 b 811 40 801 75 811 58 "},"L":{"ha":650,"x_min":0,"x_max":0,"o":"m 625 57 b 565 0 625 15 604 0 l 176 0 b 108 61 131 0 108 13 l 108 871 b 176 928 108 918 135 928 l 236 928 b 294 871 276 928 294 911 l 294 157 b 565 160 385 158 475 160 b 625 57 635 160 625 107 "},"M":{"ha":1128,"x_min":0,"x_max":0,"o":"m 1044 54 b 918 0 1044 -15 964 0 b 858 60 876 0 861 21 l 822 625 b 786 518 810 590 799 554 b 658 158 746 401 706 271 b 546 104 633 99 604 104 b 471 158 503 104 486 121 b 340 518 422 276 383 399 b 306 625 328 553 318 590 l 269 60 b 151 0 265 -14 208 0 b 83 54 113 0 83 10 b 83 64 83 57 83 61 l 154 872 b 222 928 158 917 182 928 l 299 928 b 369 885 335 928 356 918 b 439 700 396 825 417 761 b 564 351 481 583 522 467 b 689 700 606 467 647 583 b 758 885 711 761 732 825 b 829 928 772 918 793 928 l 906 928 b 974 872 946 928 969 917 l 1044 64 b 1044 54 1044 61 1044 57 "},"N":{"ha":961,"x_min":0,"x_max":0,"o":"m 857 61 b 756 0 857 -10 807 0 b 678 29 721 0 701 0 b 636 88 663 47 650 68 b 539 225 603 133 571 179 b 288 593 454 347 371 471 l 288 61 b 171 0 288 -12 224 0 b 104 61 125 0 104 13 l 104 871 b 208 928 104 938 161 928 b 279 899 243 928 257 926 b 322 840 294 881 308 860 b 417 703 354 794 386 749 b 674 331 503 579 588 454 l 674 871 b 799 928 674 943 749 928 b 857 871 839 928 857 911 l 857 61 "},"O":{"ha":965,"x_min":0,"x_max":0,"o":"m 879 463 b 483 -29 879 192 790 -29 b 88 463 174 -29 88 190 b 483 954 88 735 174 954 b 879 463 790 954 879 733 m 686 463 b 656 703 686 528 683 644 b 483 792 622 772 556 792 b 311 703 411 792 344 772 b 281 463 283 644 281 528 b 311 224 281 397 283 282 b 483 133 343 154 411 133 b 656 224 556 133 624 154 b 686 463 683 282 686 397 "},"P":{"ha":811,"x_min":0,"x_max":0,"o":"m 743 603 b 294 299 743 272 560 299 l 294 61 b 176 0 294 -15 231 0 b 108 61 131 0 108 13 l 108 871 b 176 928 108 918 135 928 l 433 928 b 671 863 526 928 601 933 b 743 603 733 799 743 688 m 558 614 b 521 758 558 650 557 739 b 411 769 499 769 438 769 b 294 767 372 769 333 768 l 294 458 l 451 458 b 542 485 479 458 522 460 b 558 614 560 508 558 583 "},"Q":{"ha":965,"x_min":0,"x_max":0,"o":"m 879 458 b 783 90 879 328 868 197 b 576 -29 729 22 663 -15 b 756 -79 594 -96 704 -79 b 801 -176 811 -79 801 -136 b 688 -242 801 -244 742 -242 b 382 -29 532 -242 410 -199 b 182 90 300 -14 233 25 b 88 458 97 197 88 328 b 483 954 88 732 171 954 b 879 458 794 954 879 731 m 686 458 b 656 700 686 525 683 640 b 483 792 624 769 556 792 b 311 700 411 792 343 769 b 281 458 283 640 281 525 b 311 218 281 392 283 278 b 483 126 343 147 411 126 b 656 218 556 126 624 147 b 686 458 683 278 686 392 "},"R":{"ha":854,"x_min":0,"x_max":0,"o":"m 790 38 b 742 0 790 10 767 0 l 658 0 b 574 38 619 0 599 7 l 338 338 l 294 338 l 294 61 b 176 0 294 -14 232 0 b 108 61 131 0 108 13 l 108 871 b 176 928 108 918 135 928 l 433 928 b 671 863 526 928 601 933 b 743 603 733 799 743 688 b 558 344 743 472 700 364 l 771 86 b 790 38 782 72 790 56 m 558 614 b 521 758 558 649 557 739 b 414 769 499 769 440 769 b 294 767 374 769 335 768 l 294 496 l 451 496 b 558 614 546 496 558 526 "},"S":{"ha":751,"x_min":0,"x_max":0,"o":"m 669 286 b 643 92 669 231 668 140 b 356 -12 592 -7 453 -12 b 151 -3 288 -12 218 -11 b 79 46 118 1 79 4 l 79 93 b 132 160 79 136 83 160 b 376 149 214 160 294 149 b 488 239 460 149 488 149 b 472 340 488 264 492 321 b 439 360 464 350 450 354 b 264 433 381 385 322 408 b 90 689 117 497 90 525 b 228 915 90 801 113 876 b 421 938 288 935 358 938 b 578 931 474 938 526 935 b 651 882 611 928 651 925 l 651 836 b 597 769 651 792 646 769 b 507 775 567 769 536 774 b 347 778 453 778 400 778 b 272 676 268 778 272 742 b 321 594 272 626 274 617 b 435 546 358 578 397 563 b 567 485 479 526 525 508 b 669 286 657 436 669 385 "},"T":{"ha":793,"x_min":0,"x_max":0,"o":"m 754 833 b 694 768 754 790 742 768 b 490 771 626 768 558 769 l 490 61 b 371 0 490 -14 425 0 b 304 61 325 0 304 13 l 304 771 b 99 768 236 769 167 768 b 40 871 29 768 40 821 b 99 928 40 911 60 928 l 694 928 b 754 833 761 928 754 885 "},"U":{"ha":944,"x_min":0,"x_max":0,"o":"m 850 553 b 746 53 850 408 863 160 b 472 -21 675 -12 563 -21 b 200 53 381 -21 271 -12 b 96 531 85 160 96 386 l 96 871 b 163 928 96 918 121 928 l 221 928 b 282 871 260 928 282 911 l 282 461 b 311 210 282 389 278 276 b 472 142 343 144 407 142 b 635 210 536 142 603 144 b 664 461 668 276 664 389 l 664 871 b 733 928 664 919 692 928 l 793 928 b 850 871 835 928 850 910 l 850 553 "},"V":{"ha":925,"x_min":0,"x_max":0,"o":"m 876 894 b 867 851 876 882 871 864 l 582 60 b 435 -3 554 -18 508 -3 b 353 60 386 -3 369 15 l 54 865 b 49 886 51 872 49 879 b 99 928 49 917 71 928 l 183 928 b 250 879 221 928 238 914 l 469 247 l 683 869 b 756 928 697 910 710 928 l 824 928 b 876 894 851 928 876 928 "},"W":{"ha":1193,"x_min":0,"x_max":0,"o":"m 1140 882 b 1138 861 1140 875 1139 868 l 954 50 b 886 -3 944 8 926 -3 l 796 -3 b 729 50 756 -3 742 14 b 597 486 679 193 640 340 b 467 50 554 340 517 193 b 397 -3 454 14 438 -3 l 308 -3 b 242 50 267 -3 251 10 l 57 861 b 54 879 56 867 54 874 b 124 928 54 922 88 928 l 193 928 b 253 871 235 928 246 907 l 372 249 b 456 549 400 349 428 449 b 501 703 469 599 482 653 b 629 747 524 761 578 747 b 694 703 663 747 683 733 b 740 551 713 654 725 601 b 824 254 768 453 796 353 l 943 871 b 1001 928 950 907 960 928 l 1071 928 b 1140 882 1103 928 1140 922 "},"X":{"ha":906,"x_min":0,"x_max":0,"o":"m 832 39 b 786 0 832 11 811 0 l 700 0 b 619 44 658 0 642 10 l 447 313 l 264 44 b 189 0 242 13 229 0 l 119 0 b 74 39 94 0 74 11 b 94 92 74 57 85 78 l 351 457 l 94 840 b 78 883 86 853 78 868 b 133 928 78 915 106 928 l 210 928 b 283 890 240 928 267 917 l 461 614 l 650 892 b 781 928 682 940 728 928 b 832 888 807 928 832 918 b 806 825 832 867 818 842 l 557 471 l 811 92 b 832 39 821 76 832 58 "},"Y":{"ha":854,"x_min":0,"x_max":0,"o":"m 807 882 b 788 828 807 865 796 843 l 524 360 l 524 61 b 404 0 524 -14 460 0 b 338 61 358 0 338 13 l 338 349 l 60 843 b 46 883 53 856 46 869 b 100 928 46 914 72 928 l 175 928 b 244 888 211 928 228 918 l 432 547 l 624 889 b 754 928 653 942 701 928 b 807 882 783 928 807 914 "},"Z":{"ha":800,"x_min":0,"x_max":0,"o":"m 740 892 b 719 832 740 872 729 849 l 303 147 b 672 160 426 153 549 160 b 731 57 742 160 731 107 b 672 0 731 17 711 0 l 114 0 b 58 53 82 0 58 19 b 82 119 58 76 69 100 l 479 774 b 149 768 369 771 258 768 b 89 871 79 768 89 821 b 149 928 89 913 110 928 l 696 928 b 740 892 719 928 740 918 "},"[":{"ha":449,"x_min":0,"x_max":0,"o":"m 504 -132 b 444 -190 504 -172 483 -190 l 165 -190 b 92 -128 117 -190 92 -182 l 92 1058 b 153 1118 92 1103 110 1118 l 444 1118 b 504 1032 506 1118 504 1081 b 444 967 504 989 490 967 b 251 974 381 967 315 971 l 251 -46 b 444 -39 315 -43 381 -39 b 504 -132 510 -39 504 -83 "},"\\":{"ha":547,"x_min":0,"x_max":0,"o":"m 501 26 b 460 -19 501 1 479 -10 b 401 -43 444 -26 419 -43 b 358 -7 379 -43 367 -25 l -22 893 b -28 919 -26 901 -28 911 b 44 983 -28 960 15 969 b 72 990 53 988 63 990 b 115 957 94 990 107 976 l 493 61 b 501 26 497 51 501 38 "},"]":{"ha":449,"x_min":0,"x_max":0,"o":"m 357 -128 b 283 -190 357 -182 332 -190 l 6 -190 b -54 -104 -56 -190 -54 -153 b 6 -39 -54 -61 -40 -39 b 199 -46 69 -39 135 -43 l 199 974 b 6 967 135 971 69 967 b -54 1060 -60 967 -54 1011 b 6 1118 -54 1100 -33 1118 l 296 1118 b 357 1058 339 1118 357 1103 l 357 -128 "},"^":{"ha":697,"x_min":0,"x_max":0,"o":"m 469 503 l 349 731 l 228 503 l 40 503 l 290 957 l 408 957 l 657 503 "},"_":{"ha":513,"x_min":0,"x_max":0,"o":"m 513 -264 b 449 -315 513 -311 492 -315 l 61 -315 b 0 -274 29 -315 0 -312 l 0 -218 b 61 -181 0 -187 38 -181 l 449 -181 b 513 -218 475 -181 513 -183 l 513 -264 "},"‘":{"ha":361,"x_min":0,"x_max":0,"o":"m 307 743 b 214 685 307 714 239 685 b 158 719 188 685 172 697 b 46 926 139 750 46 903 b 103 967 46 956 78 967 l 156 967 b 221 921 193 967 204 951 l 292 789 b 307 743 299 776 307 757 "},"a":{"ha":736,"x_min":0,"x_max":0,"o":"m 644 60 b 589 0 644 19 631 0 l 511 0 b 471 50 479 0 471 21 b 265 -18 406 10 343 -18 b 67 189 129 -18 67 56 b 293 407 67 340 157 392 b 469 418 351 414 410 419 b 400 551 469 474 478 551 b 200 522 333 551 264 538 b 167 518 189 519 178 518 b 126 601 118 518 126 567 b 165 660 126 632 135 650 b 393 686 229 678 326 686 b 592 622 460 686 544 675 b 644 397 647 561 644 475 l 644 60 m 471 293 b 403 296 449 294 425 296 b 315 292 374 296 344 296 b 233 204 257 283 233 264 b 285 111 233 171 239 111 b 471 181 354 111 415 140 "},"b":{"ha":772,"x_min":0,"x_max":0,"o":"m 694 343 b 385 -18 694 114 633 -18 b 163 -1 311 -18 235 -14 b 96 61 125 6 96 17 l 96 896 b 157 956 96 940 114 956 l 219 956 b 274 896 257 956 274 931 l 274 672 b 444 686 331 681 388 686 b 694 343 663 686 694 529 m 514 346 b 501 483 514 392 513 439 b 417 539 489 535 467 539 b 274 521 369 539 319 531 l 274 140 b 388 128 311 135 350 128 b 499 186 433 128 483 136 b 514 346 511 228 514 301 "},"c":{"ha":664,"x_min":0,"x_max":0,"o":"m 589 39 b 513 -12 589 -10 556 -7 b 394 -18 474 -17 433 -18 b 78 333 124 -18 78 75 b 394 686 78 592 124 686 b 513 679 433 686 474 683 b 589 632 554 675 589 678 l 589 629 b 539 521 589 594 589 521 b 483 526 521 521 501 524 b 353 538 440 532 396 538 b 271 472 294 538 283 526 b 260 333 261 428 260 379 b 265 200 260 289 261 244 b 353 131 271 138 293 131 b 485 142 397 131 440 136 b 539 147 503 144 521 147 b 572 133 554 147 561 144 b 589 39 583 122 589 56 "},"d":{"ha":775,"x_min":0,"x_max":0,"o":"m 683 63 b 628 0 683 24 671 0 l 564 0 b 513 32 540 0 522 10 b 329 -18 454 3 394 -18 b 78 318 135 -18 78 151 b 375 685 78 524 144 685 b 506 674 418 685 463 681 l 506 896 b 567 956 506 940 524 956 l 628 956 b 683 896 664 956 683 931 l 683 63 m 506 519 b 369 538 461 531 415 538 b 314 526 349 538 332 538 b 257 301 258 494 257 354 b 358 128 257 233 268 128 b 506 192 410 128 468 160 "},"e":{"ha":728,"x_min":0,"x_max":0,"o":"m 650 361 b 592 276 650 307 654 276 l 253 276 l 253 257 b 382 118 251 156 276 118 b 551 140 439 118 496 128 b 600 150 568 144 583 150 b 640 61 639 150 640 88 b 590 0 640 22 629 8 b 381 -18 524 -14 449 -18 b 78 329 131 -18 78 100 b 374 686 78 553 122 686 b 650 361 603 686 650 568 m 481 425 b 374 547 481 511 468 547 b 253 399 260 547 253 499 l 481 399 "},"f":{"ha":531,"x_min":0,"x_max":0,"o":"m 519 901 b 478 806 519 872 519 806 b 426 814 461 806 444 811 b 360 818 404 817 382 818 b 310 804 344 818 319 819 b 300 665 296 783 300 688 l 439 665 b 485 626 469 665 485 660 l 485 571 b 435 518 485 531 475 518 l 300 518 l 300 63 b 251 0 300 26 294 0 l 164 0 b 122 54 126 0 122 22 l 122 518 l 81 518 b 47 567 50 518 47 542 l 47 626 b 122 665 47 675 86 665 l 122 721 b 158 885 122 779 124 836 b 397 967 215 963 308 967 b 513 940 425 967 494 968 b 519 911 518 932 519 921 l 519 901 "},"g":{"ha":764,"x_min":0,"x_max":0,"o":"m 672 -64 b 643 -197 672 -115 672 -153 b 388 -301 588 -279 481 -301 b 128 -275 318 -301 193 -296 b 86 -211 96 -265 86 -243 b 132 -121 86 -181 89 -121 b 167 -128 143 -121 156 -125 b 397 -156 242 -146 319 -156 b 494 -7 501 -156 494 -90 l 494 0 b 333 -18 442 -10 388 -18 b 76 315 118 -18 76 128 b 151 599 76 408 89 525 b 426 686 225 685 319 686 b 617 681 489 686 554 686 b 672 618 661 676 672 661 l 672 -64 m 494 536 b 385 539 458 538 421 539 b 283 496 342 539 304 539 b 257 322 263 453 257 369 b 265 213 257 286 260 249 b 351 121 274 149 282 121 b 494 144 399 121 449 131 "},"h":{"ha":729,"x_min":0,"x_max":0,"o":"m 656 63 b 601 0 656 24 644 0 l 528 0 b 478 63 488 0 478 26 l 478 418 b 468 528 478 438 481 514 b 424 539 458 539 438 539 b 254 475 361 539 304 510 l 254 63 b 200 0 254 24 243 0 l 126 0 b 76 56 89 0 76 21 l 76 896 b 138 956 76 940 94 956 l 200 956 b 254 896 236 956 254 931 l 254 639 b 442 686 313 667 376 686 b 656 489 571 686 656 622 l 656 63 "},"i":{"ha":383,"x_min":0,"x_max":0,"o":"m 282 826 b 226 764 282 788 269 764 l 174 764 b 100 826 124 764 100 771 l 100 875 b 161 936 100 919 118 936 l 226 936 b 282 875 263 936 282 910 l 282 826 m 282 63 b 226 0 282 24 269 0 l 174 0 b 100 63 124 0 100 7 l 100 604 b 161 665 100 649 118 665 l 226 665 b 282 604 263 665 282 639 l 282 63 "},"j":{"ha":381,"x_min":0,"x_max":0,"o":"m 290 825 b 235 764 290 785 278 764 l 181 764 b 108 825 131 764 108 769 l 108 874 b 169 936 108 918 125 936 l 235 936 b 290 874 272 936 290 908 l 290 825 m 290 -19 b 279 -161 290 -64 290 -117 b 64 -294 254 -254 153 -294 b -31 -187 -33 -294 -31 -279 b 14 -131 -31 -160 -17 -131 b 82 -139 36 -131 58 -139 b 108 -69 114 -139 108 -90 l 108 604 b 169 665 108 649 125 665 l 235 665 b 290 604 271 665 290 639 l 290 -19 "},"k":{"ha":713,"x_min":0,"x_max":0,"o":"m 704 38 b 653 0 704 11 675 0 l 563 0 b 500 35 532 0 518 13 l 274 307 l 274 63 b 226 0 274 29 265 0 l 138 0 b 96 63 100 0 96 32 l 96 896 b 157 956 96 940 114 956 l 219 956 b 274 896 256 956 274 931 l 274 449 l 454 640 b 524 665 475 663 493 665 l 599 665 b 650 628 624 665 650 657 b 617 578 650 608 629 589 l 406 385 l 692 64 b 704 38 697 57 704 47 "},"l":{"ha":374,"x_min":0,"x_max":0,"o":"m 275 63 b 221 0 275 24 264 0 l 171 0 b 97 63 121 0 97 7 l 97 896 b 158 956 97 940 115 956 l 221 956 b 275 896 257 956 275 931 l 275 63 "},"m":{"ha":1063,"x_min":0,"x_max":0,"o":"m 969 61 b 865 0 969 -12 922 0 b 792 61 817 0 792 6 l 792 421 b 761 539 792 443 799 539 b 622 464 715 539 657 492 l 622 61 b 518 0 622 -12 575 0 b 444 61 469 0 444 6 l 444 421 b 414 539 444 443 451 539 b 275 464 368 539 310 492 l 275 61 b 221 0 275 22 264 0 l 150 0 b 97 61 104 0 97 19 l 97 606 b 158 665 97 649 115 665 l 221 665 b 268 622 253 665 258 650 b 463 686 328 657 392 686 b 596 611 519 686 568 663 b 810 686 661 653 731 686 b 969 492 928 686 969 597 l 969 61 "},"n":{"ha":768,"x_min":0,"x_max":0,"o":"m 676 61 b 572 0 676 -11 628 0 b 499 61 524 0 499 6 l 499 421 b 489 519 499 443 500 500 b 446 540 479 536 464 540 b 275 464 378 540 326 504 l 275 61 b 171 0 275 -12 228 0 b 97 61 122 0 97 6 l 97 606 b 158 665 97 649 115 665 l 221 665 b 268 622 251 665 261 650 b 463 686 329 663 389 686 b 676 493 589 686 676 625 l 676 61 "},"o":{"ha":793,"x_min":0,"x_max":0,"o":"m 715 333 b 397 -18 715 114 631 -18 b 78 333 165 -18 78 115 b 397 686 78 553 164 686 b 715 333 632 686 715 553 m 536 333 b 511 494 536 381 535 451 b 397 539 486 540 444 539 b 283 494 350 539 308 540 b 257 333 260 450 257 382 b 283 172 257 285 260 215 b 397 129 308 128 351 129 b 511 172 443 129 486 128 b 536 333 535 215 536 286 "},"p":{"ha":786,"x_min":0,"x_max":0,"o":"m 707 339 b 668 115 707 263 706 185 b 401 -18 615 17 507 -18 b 275 -4 358 -18 317 -14 l 275 -228 b 171 -290 275 -303 228 -290 b 97 -228 121 -290 97 -283 l 97 606 b 158 665 97 650 115 665 l 221 665 b 269 619 254 665 263 650 b 482 686 335 656 406 686 b 707 339 683 686 707 497 m 528 335 b 514 493 528 381 526 449 b 460 539 506 521 490 539 b 275 467 406 539 321 496 l 275 147 b 404 129 317 135 361 129 b 528 335 532 129 528 238 "},"q":{"ha":767,"x_min":0,"x_max":0,"o":"m 672 -228 b 568 -290 672 -301 624 -290 b 494 -228 518 -290 494 -283 l 494 19 b 343 -18 447 -8 397 -18 b 78 317 129 -18 78 128 b 151 594 78 415 89 514 b 389 686 217 679 288 686 b 619 676 465 686 543 685 b 672 626 653 674 672 664 l 672 -228 m 494 526 b 369 535 453 532 411 535 b 286 499 335 535 304 531 b 257 296 260 451 257 347 b 354 129 257 221 254 129 b 494 189 404 129 457 158 "},"r":{"ha":554,"x_min":0,"x_max":0,"o":"m 518 586 b 467 522 518 549 510 522 b 279 468 386 522 346 510 l 279 61 b 224 0 279 21 265 0 l 171 0 b 97 61 122 0 97 6 l 97 606 b 158 665 97 649 115 665 l 224 665 b 275 617 256 665 268 646 b 457 681 331 650 392 681 b 518 586 525 681 518 639 "},"s":{"ha":693,"x_min":0,"x_max":0,"o":"m 604 197 b 343 -17 604 8 515 -17 b 144 -7 278 -17 210 -17 b 106 57 103 -1 106 18 l 106 82 b 146 146 104 113 108 146 b 218 138 169 146 194 140 b 363 131 265 133 314 131 b 432 182 408 131 432 131 b 424 228 432 196 433 217 b 268 283 413 242 290 275 b 189 315 242 293 214 303 b 90 472 117 351 90 392 b 406 683 90 686 235 683 b 508 681 440 683 474 683 b 578 613 558 676 578 667 b 526 526 578 572 581 526 b 454 532 503 526 478 531 b 343 538 418 536 381 538 b 263 483 290 538 263 544 b 269 456 263 472 263 465 b 444 392 283 436 415 401 b 604 197 553 356 604 319 "},"t":{"ha":565,"x_min":0,"x_max":0,"o":"m 494 572 b 461 519 494 543 496 519 l 311 519 l 311 240 b 319 139 311 224 310 153 b 340 128 325 131 331 128 b 454 149 379 128 415 149 b 492 60 503 149 492 92 b 433 -10 492 13 482 -4 b 313 -17 393 -14 353 -17 b 133 203 151 -17 133 57 l 133 519 l 94 519 b 61 560 69 519 61 538 l 61 619 b 133 665 61 672 92 665 l 133 778 b 193 839 133 821 150 839 l 256 839 b 311 778 292 839 311 813 l 311 665 l 447 665 b 494 572 508 665 494 624 "},"u":{"ha":768,"x_min":0,"x_max":0,"o":"m 671 60 b 611 0 671 17 654 0 l 549 0 b 501 46 519 0 507 19 b 306 -19 440 6 379 -19 b 92 175 178 -19 92 43 l 92 604 b 197 665 92 678 142 665 b 269 604 246 665 269 658 l 269 246 b 322 128 269 203 260 128 b 493 204 392 128 439 164 l 493 604 b 599 665 493 678 543 665 b 671 604 647 665 671 658 l 671 60 "},"v":{"ha":713,"x_min":0,"x_max":0,"o":"m 665 629 b 661 607 665 622 664 614 l 456 50 b 329 0 432 -14 389 0 b 257 50 286 0 272 8 l 53 608 b 49 629 50 615 49 622 b 96 665 49 658 69 665 l 171 665 b 239 618 210 665 228 657 l 358 222 l 478 617 b 547 665 489 656 507 665 l 618 665 b 665 629 642 665 665 657 "},"w":{"ha":1013,"x_min":0,"x_max":0,"o":"m 949 622 b 946 599 949 614 949 607 l 774 35 b 718 0 764 4 747 0 l 664 0 b 596 60 615 0 610 18 l 506 324 l 417 60 b 294 0 392 -14 368 0 b 238 35 265 0 247 4 l 65 599 b 63 622 63 607 63 614 b 181 665 63 679 146 665 b 249 614 221 665 239 654 l 335 235 l 418 517 b 525 560 433 569 479 560 b 594 517 561 560 583 554 l 678 235 l 764 614 b 832 665 774 654 792 665 l 893 665 b 949 622 921 665 949 656 "},"x":{"ha":764,"x_min":0,"x_max":0,"o":"m 699 38 b 650 0 699 8 675 0 l 564 0 b 508 26 536 0 524 3 l 382 218 l 253 22 b 199 0 239 1 222 0 l 113 0 b 65 38 88 0 65 8 b 107 108 65 57 94 93 l 282 335 l 121 553 b 79 628 110 568 79 608 b 128 665 79 656 103 665 l 194 665 b 281 611 244 665 254 651 l 382 457 l 482 611 b 572 665 510 654 519 665 l 636 665 b 683 628 661 665 683 656 b 642 553 683 608 653 568 l 482 335 l 669 92 b 699 38 678 81 699 51 "},"y":{"ha":732,"x_min":0,"x_max":0,"o":"m 668 625 b 660 593 668 614 664 603 l 358 -244 b 290 -286 344 -282 328 -286 l 221 -286 b 172 -250 196 -286 172 -279 b 182 -217 172 -239 178 -228 l 286 29 l 58 606 b 53 628 56 614 53 619 b 101 665 53 651 81 665 l 164 665 b 242 626 201 665 229 667 l 367 233 l 485 611 b 621 665 507 681 558 665 b 668 625 646 665 668 653 "},"z":{"ha":686,"x_min":0,"x_max":0,"o":"m 614 58 b 554 0 614 18 593 0 l 126 0 b 72 74 76 0 72 33 b 96 135 72 96 83 117 l 382 526 b 151 514 306 521 228 514 b 92 607 86 514 92 558 b 151 665 92 647 113 665 l 557 665 b 604 579 613 665 604 619 b 588 532 604 563 597 546 l 299 140 b 554 151 383 146 469 151 b 614 58 619 151 614 107 "},"{":{"ha":539,"x_min":0,"x_max":0,"o":"m 564 -156 b 519 -193 564 -183 544 -193 b 256 -92 428 -193 310 -174 b 199 219 200 -8 204 122 b 69 461 190 354 169 374 b 199 703 169 549 190 569 b 256 1014 204 800 200 931 b 519 1115 310 1096 428 1115 b 564 1039 572 1115 564 1076 b 388 947 564 982 425 1007 b 360 707 364 910 361 751 b 250 461 357 582 339 547 b 360 215 339 375 357 340 b 388 -25 361 171 364 13 b 564 -117 425 -85 564 -60 l 564 -156 "},"|":{"ha":269,"x_min":0,"x_max":0,"o":"m 197 -131 b 142 -193 197 -169 185 -193 l 110 -193 b 36 -131 61 -193 36 -185 l 36 1056 b 97 1115 36 1100 54 1115 l 142 1115 b 197 1056 178 1115 197 1090 l 197 -131 "},"}":{"ha":539,"x_min":0,"x_max":0,"o":"m 469 461 b 340 219 369 374 349 353 b 283 -92 335 122 339 -8 b 19 -193 229 -174 111 -193 b -25 -117 -33 -193 -25 -154 b 151 -25 -25 -60 114 -85 b 179 215 175 13 178 171 b 289 461 182 340 200 375 b 179 707 200 547 182 582 b 151 947 178 751 174 910 b -25 1039 114 1007 -25 982 l -25 1078 b 19 1115 -25 1106 -6 1115 b 283 1014 111 1115 229 1096 b 340 703 339 931 335 800 b 469 461 349 569 369 549 "},"~":{"ha":483,"x_min":0,"x_max":0,"o":"m 483 678 b 471 635 483 663 476 647 b 333 531 444 578 401 531 b 163 574 265 531 211 574 b 83 525 128 574 121 525 l 36 525 b 0 557 14 525 0 533 b 18 607 0 574 10 593 b 154 708 47 660 90 708 b 329 667 218 708 282 667 b 396 710 351 667 361 710 l 446 710 b 483 678 468 710 483 703 "},"¡":{"ha":418,"x_min":0,"x_max":0,"o":"m 207 681 b 185 690 199 681 190 685 l 89 786 b 79 810 83 792 79 800 b 89 832 79 818 83 826 l 185 928 b 206 938 190 933 199 938 b 228 928 214 938 222 933 l 324 832 b 333 810 329 826 333 818 b 324 786 333 800 329 792 l 228 690 b 207 681 222 685 214 681 m 299 29 b 238 -28 299 -14 278 -28 l 176 -28 b 121 32 140 -28 119 -3 l 132 553 b 188 615 133 592 146 615 l 225 615 b 288 553 278 615 286 604 l 299 32 l 299 29 "},"¢":{"ha":663,"x_min":0,"x_max":0,"o":"m 588 179 b 511 129 588 132 554 133 b 433 125 485 126 460 126 l 433 54 b 381 14 433 10 417 14 b 351 54 351 14 351 28 l 351 125 b 78 465 110 135 78 243 b 351 808 78 688 110 799 l 351 876 b 401 914 351 918 367 914 b 433 876 424 914 433 897 l 433 808 b 511 801 460 807 485 804 b 585 779 528 800 575 797 b 588 757 588 772 588 764 l 588 754 b 538 649 588 718 589 649 b 433 660 503 649 468 657 l 433 274 b 538 285 468 276 503 285 b 571 272 551 285 560 282 b 588 179 582 261 588 194 m 351 664 b 269 600 293 664 282 657 b 258 465 260 557 258 510 b 264 336 258 422 260 379 b 351 269 269 272 294 271 "},"£":{"ha":843,"x_min":0,"x_max":0,"o":"m 728 871 b 731 857 731 867 731 863 b 721 819 731 846 728 829 b 675 765 717 789 710 765 b 603 778 653 765 625 775 b 471 789 560 786 515 789 b 367 668 379 789 367 754 b 376 547 367 628 371 588 l 532 547 b 596 472 590 547 596 524 b 532 401 596 421 586 401 l 383 401 b 336 151 383 338 360 210 b 476 124 381 140 431 124 b 593 146 517 124 556 132 b 685 183 611 153 671 183 b 724 93 735 183 724 126 b 674 15 724 49 711 36 b 499 -29 621 -14 558 -29 b 246 14 404 -29 328 14 b 122 -10 203 14 164 -10 b 93 10 110 -10 96 -4 l 79 74 b 78 89 78 79 78 83 b 182 171 78 151 132 161 b 201 354 194 232 201 292 b 200 401 201 369 201 386 b 111 493 114 401 111 410 b 193 547 111 549 150 547 b 182 696 188 597 182 646 b 240 871 182 757 201 824 b 460 946 294 936 381 946 b 672 929 531 946 603 940 b 728 871 707 924 733 910 "},"⁄":{"ha":240,"x_min":0,"x_max":0,"o":"m 451 944 b 439 907 451 931 446 918 l -75 -26 b -117 -57 -83 -42 -97 -57 b -181 -25 -136 -57 -165 -35 b -211 10 -193 -17 -211 -8 b -196 51 -211 24 -203 40 l 319 985 b 360 1014 328 1000 342 1014 b 389 1003 371 1014 381 1008 b 451 944 407 992 451 972 "},"¥":{"ha":854,"x_min":0,"x_max":0,"o":"m 807 882 b 788 828 807 865 796 843 l 560 425 l 664 425 b 724 356 711 425 724 399 b 664 296 724 313 708 296 l 524 296 l 524 222 l 664 222 b 724 153 711 222 724 196 b 664 93 724 110 708 93 l 524 93 l 524 61 b 404 0 524 -14 460 0 b 338 93 333 0 338 33 l 197 93 b 138 168 140 93 138 119 b 197 222 138 204 164 222 l 338 222 l 338 296 l 197 296 b 138 371 140 296 138 322 b 197 425 138 407 164 425 l 294 425 l 60 843 b 46 883 53 856 46 869 b 100 928 46 914 72 928 l 175 928 b 244 888 211 928 228 918 l 432 547 l 624 889 b 754 928 653 940 701 928 b 807 882 783 928 807 914 "},"ƒ":{"ha":706,"x_min":0,"x_max":0,"o":"m 690 840 b 649 774 690 804 692 774 b 556 785 621 774 589 785 b 463 646 478 785 474 706 l 535 646 b 599 592 572 646 599 633 l 599 574 b 535 501 599 524 590 501 l 435 501 l 358 82 b 114 -215 331 -74 308 -215 b 26 -117 26 -215 26 -197 b 94 -68 26 -69 56 -68 b 174 61 160 -68 165 13 l 254 501 b 161 592 168 501 161 506 b 282 646 161 658 239 646 b 542 940 317 814 336 940 b 629 932 571 940 600 936 b 690 878 665 928 690 919 l 690 840 "},"§":{"ha":818,"x_min":0,"x_max":0,"o":"m 743 -15 b 371 -301 743 -228 554 -301 b 113 -246 276 -301 199 -287 b 85 -222 104 -242 85 -233 b 136 -110 85 -206 126 -129 b 156 -87 139 -103 146 -87 b 188 -101 165 -87 179 -97 b 365 -154 244 -133 299 -154 b 565 -31 444 -154 565 -132 b 88 404 565 138 88 88 b 143 553 88 460 107 511 b 88 699 106 593 88 643 b 431 954 88 885 272 954 b 694 914 496 954 635 936 b 707 903 700 913 707 910 b 660 772 707 890 668 785 b 646 764 657 768 651 764 b 607 774 632 764 619 769 b 432 807 550 792 492 807 b 268 703 365 807 268 788 b 743 281 268 558 743 596 b 697 122 743 225 728 169 b 743 -15 729 83 743 35 m 565 263 b 289 468 565 383 379 433 b 268 408 275 451 268 431 b 394 288 268 347 347 308 b 557 215 449 264 504 242 b 565 263 563 231 565 246 "},"¤":{"ha":863,"x_min":0,"x_max":0,"o":"m 686 119 l 590 215 b 431 169 543 185 486 169 b 271 215 375 169 318 185 l 175 119 l 86 213 l 181 306 b 135 464 151 353 135 408 b 181 622 135 519 151 575 l 86 717 l 175 810 l 271 714 b 431 760 318 744 375 760 b 590 714 486 760 543 744 l 686 810 l 775 717 l 681 622 b 726 464 710 575 726 519 b 681 306 726 408 710 353 l 775 213 m 599 465 b 431 632 599 556 521 632 b 263 465 339 632 263 558 b 431 297 263 372 338 297 b 599 465 524 297 599 372 "},"'":{"ha":289,"x_min":0,"x_max":0,"o":"m 136 793 b 75 846 97 793 79 806 l 61 1001 l 61 1008 b 124 1054 58 1047 92 1054 l 171 1054 b 226 1006 200 1054 228 1038 l 226 1001 l 213 846 b 158 793 210 810 197 793 "},"“":{"ha":639,"x_min":0,"x_max":0,"o":"m 585 743 b 490 685 585 714 515 685 b 436 719 464 685 450 697 b 324 926 415 753 324 899 b 381 967 324 956 356 967 l 433 967 b 499 921 471 967 482 953 l 568 789 b 585 743 575 776 585 757 m 307 743 b 214 685 307 714 239 685 b 158 719 188 685 172 697 b 46 926 139 750 46 903 b 103 967 46 956 78 967 l 156 967 b 221 921 193 967 204 951 l 292 789 b 307 743 299 776 307 757 "},"«":{"ha":729,"x_min":0,"x_max":0,"o":"m 668 110 b 575 75 668 78 594 75 b 506 104 542 75 525 76 b 367 324 485 133 367 303 b 506 543 367 346 485 513 b 575 572 525 571 542 572 b 668 538 594 572 668 569 b 544 324 668 519 560 350 b 668 110 560 297 668 128 m 375 110 b 283 75 375 78 303 75 b 214 104 250 75 233 76 b 75 324 193 133 75 303 b 214 543 75 346 193 513 b 283 572 233 571 250 572 b 375 538 303 572 375 569 b 368 515 375 529 372 522 l 253 324 l 368 132 b 375 110 372 125 375 118 "},"‹":{"ha":436,"x_min":0,"x_max":0,"o":"m 375 110 b 283 75 375 78 303 75 b 214 104 250 75 233 76 b 75 324 193 133 75 303 b 214 543 75 346 193 513 b 283 572 233 571 250 572 b 375 538 303 572 375 569 b 368 515 375 529 372 522 l 253 324 l 368 132 b 375 110 372 125 375 118 "},"›":{"ha":469,"x_min":0,"x_max":0,"o":"m 361 324 b 222 104 361 303 243 133 b 153 75 203 76 186 75 b 61 110 133 75 61 78 b 68 132 61 118 64 125 l 183 324 l 68 515 b 61 538 64 522 61 529 b 153 572 61 569 133 572 b 222 543 186 572 203 571 b 361 324 243 513 361 346 "},"ﬁ":{"ha":918,"x_min":0,"x_max":0,"o":"m 818 826 b 763 764 818 788 806 764 l 710 764 b 636 826 660 764 636 771 l 636 875 b 697 936 636 919 654 936 l 763 936 b 818 875 799 936 818 910 l 818 826 m 818 63 b 763 0 818 24 806 0 l 710 0 b 636 63 660 0 636 7 l 636 604 b 697 665 636 649 654 665 l 763 665 b 818 604 799 665 818 639 l 818 63 m 519 901 b 478 806 519 872 519 806 b 426 814 461 806 444 811 b 360 818 404 817 382 818 b 310 804 344 818 319 819 b 300 665 296 783 300 688 l 439 665 b 485 626 469 665 485 660 l 485 571 b 435 518 485 531 475 518 l 300 518 l 300 63 b 251 0 300 26 294 0 l 164 0 b 122 54 126 0 122 22 l 122 518 l 81 518 b 47 567 50 518 47 542 l 47 626 b 122 665 47 675 86 665 l 122 721 b 158 885 122 779 124 836 b 397 967 215 963 308 967 b 513 940 425 967 494 968 b 519 911 518 932 519 921 l 519 901 "},"ﬂ":{"ha":926,"x_min":0,"x_max":0,"o":"m 829 63 b 774 0 829 24 817 0 l 724 0 b 651 63 674 0 651 7 l 651 894 b 713 956 651 939 669 956 l 774 956 b 829 894 810 956 829 929 l 829 63 m 519 901 b 478 806 519 872 519 806 b 426 814 461 806 444 811 b 360 818 404 817 382 818 b 310 804 344 818 319 819 b 300 665 296 783 300 688 l 439 665 b 485 626 469 665 485 660 l 485 571 b 435 518 485 531 475 518 l 300 518 l 300 63 b 251 0 300 26 294 0 l 164 0 b 122 54 126 0 122 22 l 122 518 l 81 518 b 47 567 50 518 47 542 l 47 626 b 122 665 47 675 86 665 l 122 721 b 158 885 122 779 124 836 b 397 967 215 963 308 967 b 513 940 425 967 494 968 b 519 911 518 932 519 921 l 519 901 "},"–":{"ha":739,"x_min":0,"x_max":0,"o":"m 726 324 b 667 253 726 275 721 253 l 71 253 b 14 311 28 253 14 269 l 14 351 b 71 404 14 386 39 404 l 667 404 b 726 351 704 404 726 392 l 726 324 "},"†":{"ha":750,"x_min":0,"x_max":0,"o":"m 676 608 b 613 536 676 558 667 536 l 464 536 l 464 61 b 360 0 464 -11 417 0 b 286 61 311 0 286 7 l 286 536 l 136 536 b 74 626 69 536 74 574 b 136 679 74 664 103 679 l 286 679 l 286 869 b 347 928 286 914 306 928 l 410 928 b 464 869 446 928 464 904 l 464 679 l 613 679 b 676 608 668 679 676 660 "},"‡":{"ha":750,"x_min":0,"x_max":0,"o":"m 676 318 b 613 249 676 268 667 249 l 464 249 l 464 61 b 360 0 464 -11 417 0 b 286 61 311 0 286 7 l 286 249 l 136 249 b 74 338 69 249 74 283 b 136 392 74 374 103 392 l 286 392 l 286 536 l 136 536 b 74 626 69 536 74 574 b 136 679 74 664 103 679 l 286 679 l 286 869 b 347 928 286 914 306 928 l 410 928 b 464 869 446 928 464 904 l 464 679 l 613 679 b 676 608 668 679 676 660 b 613 536 676 558 667 536 l 464 536 l 464 392 l 613 392 b 676 318 669 392 676 369 "},"·":{"ha":403,"x_min":0,"x_max":0,"o":"m 201 335 b 179 344 193 335 185 339 l 83 440 b 74 464 78 446 74 454 b 83 486 74 472 78 481 l 179 582 b 200 592 185 588 193 592 b 222 582 208 592 217 588 l 318 486 b 328 464 324 481 328 472 b 318 440 328 454 324 446 l 222 344 b 201 335 217 339 208 335 "},"¶":{"ha":1057,"x_min":0,"x_max":0,"o":"m 971 -200 b 906 -272 971 -251 960 -272 l 715 -272 l 715 972 l 588 972 l 588 -272 l 396 -272 b 333 -182 329 -272 333 -235 b 442 -126 333 -119 399 -126 l 442 407 b 224 453 361 407 296 413 b 86 733 132 506 86 632 b 179 1025 86 828 108 957 b 496 1099 264 1107 386 1099 l 906 1099 b 971 1025 963 1099 971 1076 b 861 953 971 942 929 953 l 861 -126 b 971 -182 907 -126 971 -117 l 971 -200 "},"•":{"ha":589,"x_min":0,"x_max":0,"o":"m 508 436 b 294 215 508 319 413 215 b 81 436 172 215 81 315 b 294 657 81 557 172 657 b 508 436 415 657 508 556 "},"‚":{"ha":363,"x_min":0,"x_max":0,"o":"m 317 78 b 204 -128 317 54 224 -96 b 150 -162 190 -150 176 -162 b 56 -106 125 -162 56 -135 b 71 -60 56 -92 64 -72 l 142 72 b 207 119 158 103 169 119 l 260 119 b 317 78 285 119 317 107 "},"„":{"ha":646,"x_min":0,"x_max":0,"o":"m 601 78 b 489 -128 601 54 508 -96 b 433 -162 475 -150 460 -162 b 340 -106 408 -162 340 -135 b 356 -60 340 -92 349 -72 l 426 72 b 492 119 443 103 454 119 l 544 119 b 601 78 569 119 601 107 m 317 78 b 204 -128 317 54 224 -96 b 150 -162 190 -150 176 -162 b 56 -106 125 -162 56 -135 b 71 -60 56 -92 64 -72 l 142 72 b 207 119 158 103 169 119 l 260 119 b 317 78 285 119 317 107 "},"”":{"ha":639,"x_min":0,"x_max":0,"o":"m 593 926 b 481 719 593 901 500 753 b 426 685 467 697 453 685 b 332 743 401 685 332 714 b 347 789 332 757 340 776 l 418 921 b 485 967 435 953 447 967 l 536 967 b 593 926 561 967 593 956 m 315 926 b 204 719 315 896 226 756 b 149 685 190 697 175 685 b 56 743 124 685 56 714 b 71 789 56 757 64 776 l 142 921 b 207 967 158 951 169 967 l 260 967 b 315 926 285 967 315 956 "},"»":{"ha":729,"x_min":0,"x_max":0,"o":"m 653 324 b 514 104 653 303 535 133 b 444 75 494 76 478 75 b 353 110 425 75 353 78 b 360 132 353 118 356 125 l 475 324 l 360 515 b 353 538 356 522 353 529 b 444 572 353 569 425 572 b 514 543 478 572 494 571 b 653 324 535 513 653 346 m 361 324 b 222 104 361 303 243 133 b 153 75 203 76 186 75 b 60 110 133 75 60 78 b 183 324 60 128 168 297 b 60 538 168 350 60 519 b 153 572 60 569 133 572 b 222 543 186 572 203 571 b 361 324 243 513 361 346 "},"…":{"ha":1199,"x_min":0,"x_max":0,"o":"m 1018 -37 b 996 -28 1010 -37 1001 -33 l 900 67 b 890 89 894 72 890 81 b 900 113 890 99 894 107 l 996 208 b 1017 218 1001 214 1010 218 b 1039 208 1025 218 1033 214 l 1135 113 b 1144 89 1140 107 1144 99 b 1135 67 1144 81 1140 72 l 1039 -28 b 1018 -37 1033 -33 1025 -37 m 615 -37 b 593 -28 607 -37 599 -33 l 497 67 b 488 89 492 72 488 81 b 497 113 488 99 492 107 l 593 208 b 614 218 599 214 607 218 b 636 208 622 218 631 214 l 732 113 b 742 89 738 107 742 99 b 732 67 742 81 738 72 l 636 -28 b 614 -37 631 -33 622 -37 m 213 -37 b 190 -28 204 -37 196 -33 l 94 67 b 85 89 89 72 85 81 b 94 113 85 99 89 107 l 190 208 b 211 218 196 214 204 218 b 233 208 219 218 228 214 l 329 113 b 339 89 335 107 339 99 b 329 67 339 81 335 72 l 233 -28 b 211 -37 228 -33 219 -37 "},"‰":{"ha":1725,"x_min":0,"x_max":0,"o":"m 1683 228 b 1472 -18 1683 83 1632 -18 b 1267 226 1315 -18 1267 85 b 1474 472 1267 368 1317 472 b 1683 228 1632 472 1683 371 m 1136 228 b 925 -18 1136 83 1085 -18 b 719 226 768 -18 719 85 b 926 472 719 368 769 472 b 1136 228 1085 472 1136 371 m 906 921 b 900 901 906 914 903 907 l 394 -32 b 356 -56 386 -47 372 -56 b 340 -53 350 -56 344 -56 l 286 -21 b 274 8 276 -15 274 -3 b 278 28 274 15 275 22 l 785 961 b 822 985 793 975 806 985 b 892 950 843 985 872 961 b 906 921 901 944 906 932 m 446 701 b 235 456 446 557 394 456 b 31 701 76 456 31 561 b 236 946 31 843 79 946 b 446 701 394 946 446 844 m 1553 226 b 1536 340 1553 257 1551 314 b 1475 363 1524 361 1497 363 b 1413 340 1454 363 1424 361 b 1397 226 1399 314 1397 256 b 1413 113 1397 197 1399 139 b 1475 90 1424 92 1454 90 b 1536 113 1496 90 1525 92 b 1553 226 1550 140 1553 196 m 1006 226 b 989 340 1006 257 1004 314 b 928 363 976 361 950 363 b 865 340 907 363 876 361 b 850 226 851 314 850 256 b 865 113 850 197 851 139 b 928 90 876 92 907 90 b 989 113 949 90 978 92 b 1006 226 1003 140 1006 196 m 317 700 b 299 815 317 731 314 788 b 238 838 286 836 260 838 b 176 815 217 838 188 838 b 160 701 163 788 160 732 b 176 588 160 671 163 615 b 238 565 188 565 217 565 b 299 588 258 565 288 567 b 317 700 314 615 317 669 "},"¿":{"ha":699,"x_min":0,"x_max":0,"o":"m 393 700 b 371 710 385 700 376 704 l 275 806 b 265 829 269 811 265 819 b 275 851 265 838 269 846 l 371 947 b 392 957 376 953 385 957 b 414 947 400 957 408 953 l 510 851 b 519 829 515 846 519 838 b 510 806 519 819 515 811 l 414 710 b 393 700 408 704 400 700 m 604 31 b 556 -11 604 1 579 -7 b 344 -28 486 -22 415 -28 b 75 196 188 -28 75 22 b 283 494 75 338 196 404 b 328 596 317 529 328 546 b 378 635 328 632 346 635 l 428 635 b 481 543 494 635 481 594 b 257 204 481 400 257 339 b 351 122 257 139 290 122 b 525 144 410 122 468 133 b 556 149 535 146 546 149 b 589 125 571 149 586 142 b 604 31 593 97 604 57 "},"`":{"ha":322,"x_min":0,"x_max":0,"o":"m 322 811 b 268 783 322 785 288 783 l 211 783 b 176 790 199 783 189 785 b 81 888 140 806 104 858 b 0 993 64 907 0 971 b 108 1025 0 1031 85 1025 b 172 1017 125 1025 158 1026 b 322 811 193 1003 322 831 "},"´":{"ha":322,"x_min":0,"x_max":0,"o":"m 322 993 b 307 964 322 982 314 972 b 149 792 281 931 178 803 b 110 783 135 786 124 783 l 57 783 b 0 811 36 783 0 782 b 150 1017 0 831 129 1000 b 213 1025 163 1025 199 1025 b 322 993 235 1025 322 1031 "},"ˆ":{"ha":436,"x_min":0,"x_max":0,"o":"m 436 786 b 343 756 436 758 358 756 b 311 760 332 756 321 756 b 261 819 292 767 272 803 b 218 878 247 839 233 858 b 175 819 203 858 189 839 b 125 760 164 803 144 767 b 93 756 115 756 104 756 b 0 786 78 756 0 758 b 10 811 0 796 4 804 l 108 947 b 218 1006 149 1003 149 1006 b 328 947 288 1006 288 1003 l 426 811 b 436 786 432 804 436 796 "},"˜":{"ha":485,"x_min":0,"x_max":0,"o":"m 485 918 b 471 875 485 904 476 888 b 333 772 443 817 401 772 b 163 815 267 772 213 815 b 108 776 138 815 126 790 b 24 767 89 763 47 767 b 0 790 8 767 0 776 b 19 847 0 807 11 832 b 154 949 47 900 90 949 b 329 907 218 949 282 907 b 382 944 354 907 364 932 b 446 950 396 954 429 950 b 485 918 468 950 485 943 "},"¯":{"ha":404,"x_min":0,"x_max":0,"o":"m 404 842 b 346 771 404 793 400 771 l 57 771 b 0 829 14 771 0 788 l 0 850 b 57 904 0 883 24 904 l 346 904 b 404 842 392 904 404 885 "},"˘":{"ha":450,"x_min":0,"x_max":0,"o":"m 450 971 b 226 756 450 844 350 756 b 0 971 103 756 0 843 b 75 1022 0 1021 31 1022 b 124 985 104 1022 124 1018 b 226 864 124 913 147 864 b 329 985 306 864 329 913 b 376 1022 329 1015 350 1022 b 450 971 421 1022 450 1021 "},"˙":{"ha":182,"x_min":0,"x_max":0,"o":"m 182 803 b 126 742 182 764 168 742 l 74 742 b 0 803 25 742 0 749 l 0 850 b 61 908 0 894 19 908 l 126 908 b 182 850 163 908 182 885 l 182 803 "},"¨":{"ha":432,"x_min":0,"x_max":0,"o":"m 432 813 b 392 771 432 790 415 771 l 301 771 b 261 813 278 771 261 790 l 261 906 b 301 949 261 928 278 949 l 392 949 b 432 906 415 949 432 928 l 432 813 m 171 813 b 131 771 171 790 154 771 l 40 771 b 0 813 17 771 0 790 l 0 906 b 40 949 0 928 17 949 l 131 949 b 171 906 154 949 171 928 l 171 813 "},"˚":{"ha":247,"x_min":0,"x_max":0,"o":"m 247 875 b 124 747 247 806 194 747 b 0 875 56 747 0 808 b 124 1003 0 943 54 1003 b 247 875 194 1003 247 944 m 178 875 b 124 931 178 904 154 931 b 71 875 93 931 71 904 b 124 821 71 846 93 821 b 178 875 153 821 178 847 "},"¸":{"ha":261,"x_min":0,"x_max":0,"o":"m 261 -29 b 250 -56 261 -36 254 -50 l 163 -171 b 99 -207 144 -194 131 -207 l 44 -207 b 0 -175 18 -207 0 -204 b 6 -160 0 -169 1 -164 b 115 -35 14 -136 93 -60 b 165 0 129 -18 142 0 l 235 0 b 261 -29 254 0 261 -11 "},"˝":{"ha":436,"x_min":0,"x_max":0,"o":"m 579 993 b 564 964 579 982 571 972 b 406 792 538 931 435 803 b 367 783 392 786 381 783 l 314 783 b 257 811 293 783 257 782 b 407 1017 257 831 386 1000 b 469 1025 419 1025 456 1025 b 579 993 492 1025 579 1031 m 276 993 b 261 964 276 982 268 972 b 103 792 235 931 132 803 b 64 783 89 786 78 783 l 11 783 b -46 811 -10 783 -46 782 b 104 1017 -46 831 83 1000 b 167 1025 117 1025 153 1025 b 276 993 189 1025 276 1031 "},"˛":{"ha":261,"x_min":0,"x_max":0,"o":"m 261 -175 b 217 -207 261 -204 243 -207 l 163 -207 b 99 -171 131 -207 117 -194 l 11 -56 b 0 -29 7 -50 0 -36 b 26 0 0 -11 7 0 l 96 0 b 146 -35 119 0 132 -18 b 256 -160 168 -60 247 -136 b 261 -175 260 -164 261 -169 "},"ˇ":{"ha":436,"x_min":0,"x_max":0,"o":"m 436 983 b 426 958 436 974 432 965 l 328 822 b 218 764 288 767 288 764 b 108 822 149 764 149 767 l 10 958 b 0 983 4 965 0 974 b 93 1014 0 1011 78 1014 b 125 1010 104 1014 115 1014 b 175 950 144 1003 164 967 b 218 892 189 931 203 911 b 261 950 233 911 247 931 b 311 1010 272 967 292 1003 b 343 1014 321 1014 332 1014 b 436 983 358 1014 436 1011 "},"—":{"ha":1410,"x_min":0,"x_max":0,"o":"m 1397 324 b 1338 253 1397 275 1392 253 l 71 253 b 14 311 28 253 14 269 l 14 351 b 71 404 14 386 39 404 l 1338 404 b 1397 351 1375 404 1397 392 l 1397 324 "},"Æ":{"ha":1264,"x_min":0,"x_max":0,"o":"m 1182 57 b 1124 0 1182 17 1163 0 l 694 0 b 626 61 649 0 626 13 l 626 308 l 338 308 l 217 56 b 85 0 183 -14 156 0 b 25 46 57 0 25 13 b 40 92 25 60 35 81 l 375 778 b 539 928 414 856 440 928 l 1124 928 b 1182 833 1189 928 1182 883 b 1124 768 1182 790 1171 768 b 811 772 1019 768 915 769 l 811 556 b 1092 560 904 558 999 560 b 1151 475 1153 560 1151 522 b 1092 410 1151 432 1139 410 b 811 415 999 410 904 413 l 811 156 b 1124 160 915 158 1019 160 b 1182 57 1193 160 1182 107 m 626 772 l 585 772 b 550 746 563 772 560 765 l 408 453 l 626 453 "},"ª":{"ha":529,"x_min":0,"x_max":0,"o":"m 461 563 b 421 522 461 535 449 522 l 369 522 b 339 550 351 522 343 533 b 200 511 296 528 249 511 b 61 640 114 511 61 551 b 336 786 61 796 225 785 b 292 854 336 819 335 854 b 147 835 244 854 193 846 b 135 832 143 833 139 832 b 101 888 97 832 101 861 b 132 926 101 910 111 921 b 286 943 179 939 238 943 b 425 903 331 943 392 936 b 461 765 463 865 461 815 l 461 563 m 336 700 b 294 701 322 700 308 701 b 182 649 251 701 182 708 b 213 599 182 628 185 599 b 336 639 258 599 297 615 "},"Ł":{"ha":797,"x_min":0,"x_max":0,"o":"m 325 0 b 257 61 279 0 257 13 l 257 311 l 208 261 b 169 244 199 250 183 244 b 108 288 140 244 125 268 b 86 333 97 300 86 315 b 107 375 86 350 96 364 l 257 526 l 257 871 b 325 928 257 918 283 928 b 443 871 376 928 443 942 l 443 711 l 536 806 b 578 825 547 817 563 825 b 617 807 593 825 607 818 b 660 738 638 785 660 769 b 644 697 660 722 654 707 l 443 496 l 443 157 b 714 160 533 158 624 160 b 772 94 761 160 772 138 b 714 0 772 43 779 0 "},"Ø":{"ha":1017,"x_min":0,"x_max":0,"o":"m 951 904 b 854 769 951 875 872 790 b 911 463 903 675 911 567 b 815 97 911 332 900 203 b 514 -29 739 0 633 -29 b 253 57 418 -29 325 -10 l 182 -28 b 146 -53 174 -39 161 -53 b 67 21 128 -53 67 0 b 83 56 67 35 75 46 l 174 163 b 119 463 128 254 119 361 b 514 954 119 735 206 954 b 772 872 607 954 700 935 l 839 953 b 875 978 847 963 860 978 b 938 935 892 978 925 946 b 951 904 946 926 951 915 m 660 742 b 514 792 622 782 567 792 b 343 703 442 792 375 772 b 311 463 315 644 311 528 b 318 333 311 419 311 376 l 660 742 m 718 463 b 710 603 718 510 717 557 l 365 189 b 514 133 403 146 460 133 b 688 224 586 133 656 154 b 718 463 715 282 718 397 "},"Œ":{"ha":1232,"x_min":0,"x_max":0,"o":"m 1150 57 b 1092 0 1150 17 1131 0 l 488 0 b 88 454 160 0 88 150 b 269 899 88 611 97 831 b 488 928 336 925 417 928 l 1092 928 b 1150 833 1157 928 1150 883 b 1092 768 1150 792 1139 768 b 779 772 988 768 883 769 l 779 556 b 1061 560 874 557 967 560 b 1119 475 1122 560 1119 521 b 1061 410 1119 433 1108 410 b 779 414 967 410 874 413 l 779 156 b 1092 160 883 158 988 160 b 1150 57 1161 160 1150 106 m 593 764 b 515 767 567 767 542 767 b 371 749 472 767 410 764 b 279 464 265 707 279 556 l 279 451 b 285 331 279 411 279 371 b 417 168 294 240 322 185 b 515 161 449 163 482 161 b 593 164 542 161 567 161 "},"º":{"ha":564,"x_min":0,"x_max":0,"o":"m 501 724 b 281 510 501 576 425 510 b 61 724 136 510 61 578 b 281 940 61 871 135 940 b 501 724 428 940 501 872 m 374 724 b 356 821 374 754 372 794 b 281 844 339 847 308 844 b 206 821 253 844 222 847 b 190 724 190 796 190 751 b 206 629 190 696 190 654 b 281 604 221 603 253 604 b 357 629 308 604 342 603 b 374 724 372 654 374 694 "},"æ":{"ha":1124,"x_min":0,"x_max":0,"o":"m 1044 361 b 986 276 1044 307 1049 276 l 647 276 l 647 257 b 776 118 646 156 671 118 b 946 140 833 118 890 128 b 994 150 963 144 978 150 b 1035 61 1033 150 1035 88 b 985 0 1035 22 1024 8 b 775 -18 917 -14 843 -18 b 522 79 685 -18 576 -3 b 265 -18 451 26 356 -18 b 67 189 129 -18 67 56 b 293 407 67 340 157 392 b 469 418 351 414 410 419 b 400 551 469 474 478 551 b 200 522 335 551 264 538 b 167 518 189 519 178 518 b 126 601 118 518 126 567 b 165 660 126 632 135 651 b 393 686 231 679 325 686 b 574 640 453 686 525 678 b 768 686 629 678 703 686 b 1044 361 997 686 1044 569 m 875 425 b 768 547 875 511 863 547 b 647 399 654 547 647 499 l 875 399 m 483 185 b 471 293 476 219 472 257 b 403 296 449 294 425 296 b 318 292 375 296 346 296 b 233 204 260 285 233 265 b 285 111 233 171 239 111 b 483 185 356 111 426 144 "},"ı":{"ha":383,"x_min":0,"x_max":0,"o":"m 282 60 b 226 0 282 21 268 0 l 174 0 b 100 60 126 0 100 6 l 100 589 b 161 646 100 632 119 646 l 226 646 b 282 589 261 646 282 624 l 282 60 "},"ł":{"ha":625,"x_min":0,"x_max":0,"o":"m 386 63 b 279 0 386 -11 336 0 b 207 63 229 0 207 7 l 207 299 b 138 244 189 276 171 244 b 75 288 110 244 93 268 b 57 328 64 299 57 313 b 75 369 57 344 65 358 l 207 513 l 207 896 b 268 956 207 940 225 956 l 329 956 b 386 896 365 956 386 931 l 386 701 l 450 775 b 488 793 460 786 474 793 b 529 775 504 793 518 786 b 569 711 549 756 569 742 b 553 669 569 696 563 681 l 386 486 "},"ø":{"ha":796,"x_min":0,"x_max":0,"o":"m 747 678 b 665 563 747 650 682 582 b 717 333 707 494 717 411 b 399 -18 717 114 632 -18 b 213 25 335 -18 268 -8 l 160 -37 b 121 -60 150 -49 138 -60 b 56 -1 101 -60 56 -22 b 132 103 56 22 117 86 b 79 333 90 171 79 254 b 399 686 79 553 165 686 b 586 643 463 686 531 676 l 650 718 b 688 739 660 729 672 739 b 747 678 711 739 747 701 m 488 525 b 399 539 464 539 425 539 b 285 494 351 539 310 540 b 258 333 261 450 258 382 b 261 257 258 308 258 282 l 488 525 m 538 333 b 533 407 538 358 535 382 l 311 142 b 399 129 333 129 374 129 b 513 172 444 129 488 128 b 538 333 536 215 538 286 "},"œ":{"ha":1188,"x_min":0,"x_max":0,"o":"m 1108 361 b 1050 276 1108 307 1113 276 l 711 276 l 711 257 b 840 118 710 156 735 118 b 1010 140 897 118 954 128 b 1058 150 1026 144 1042 150 b 1099 61 1097 150 1099 88 b 1049 0 1099 22 1088 8 b 839 -18 982 -14 907 -18 b 614 47 763 -18 672 -6 b 397 -18 554 -3 474 -18 b 78 333 165 -18 78 114 b 397 686 78 553 164 686 b 614 622 474 686 554 672 b 832 686 669 676 758 686 b 1108 361 1061 686 1108 569 m 939 425 b 832 547 939 511 926 547 b 711 399 718 547 711 499 l 939 399 m 536 333 b 511 494 536 381 535 451 b 397 539 486 540 444 539 b 283 494 350 539 308 540 b 257 333 260 450 257 382 b 283 172 257 285 260 215 b 397 129 308 128 351 129 b 511 172 443 129 486 128 b 536 333 535 215 536 286 "},"ß":{"ha":822,"x_min":0,"x_max":0,"o":"m 742 349 b 451 -15 742 154 674 -15 b 350 21 421 -15 363 -14 b 333 71 344 38 339 54 b 329 94 331 78 329 86 b 381 146 329 125 350 146 b 464 140 408 146 436 140 b 515 156 482 140 500 144 b 563 365 563 193 563 313 b 389 504 563 506 510 504 b 335 575 340 504 335 535 b 400 649 335 625 346 649 b 538 728 464 649 538 643 b 415 818 538 814 490 818 b 276 732 351 818 276 814 l 276 63 b 171 0 276 -11 226 0 b 97 63 121 0 97 7 l 97 696 b 424 965 97 926 218 965 b 713 747 594 965 713 950 b 649 586 713 686 708 619 b 742 349 736 546 742 432 "},"¹":{"ha":478,"x_min":0,"x_max":0,"o":"m 303 508 b 257 464 303 479 286 464 l 232 464 b 176 508 200 464 176 471 l 176 821 b 142 810 168 818 149 810 b 100 872 107 810 100 844 b 133 910 100 893 117 903 b 257 946 168 925 219 946 b 303 901 283 946 303 928 l 303 508 "},"¬":{"ha":697,"x_min":0,"x_max":0,"o":"m 504 179 l 504 418 l 65 418 l 65 544 l 631 544 l 631 179 "},"µ":{"ha":768,"x_min":0,"x_max":0,"o":"m 671 60 b 611 0 671 17 654 0 l 549 0 b 501 46 519 0 507 19 b 314 -19 436 0 396 -19 b 269 -14 299 -19 283 -18 l 269 -228 b 213 -290 269 -271 258 -290 l 153 -290 b 92 -225 106 -290 92 -271 l 92 604 b 197 665 92 676 140 665 b 269 604 246 665 269 658 l 269 146 b 322 128 285 135 303 128 b 493 204 392 128 439 164 l 493 604 b 599 665 493 676 542 665 b 671 604 647 665 671 658 l 671 60 "},"™":{"ha":1311,"x_min":0,"x_max":0,"o":"m 1240 417 b 1146 372 1243 364 1182 372 b 1093 421 1114 372 1096 389 l 1075 661 b 988 474 1051 600 1019 529 b 932 432 972 446 967 432 l 897 432 b 847 471 864 432 860 443 b 769 661 821 533 796 597 l 751 428 b 661 372 747 367 711 372 b 604 417 631 372 601 382 l 604 425 l 650 883 b 756 928 656 940 715 928 b 814 894 783 928 801 919 b 922 632 854 810 886 719 b 1032 894 958 719 992 810 b 1139 928 1053 939 1097 928 b 1196 883 1171 928 1193 918 l 1240 425 l 1240 417 m 542 860 b 489 807 542 824 525 807 b 375 810 451 807 413 810 l 375 422 b 285 372 375 365 325 372 b 228 422 250 372 228 385 l 228 810 b 114 807 190 810 151 807 b 61 881 61 807 61 839 b 114 928 61 914 83 928 l 489 928 b 542 860 538 928 542 900 "},"Ð":{"ha":938,"x_min":0,"x_max":0,"o":"m 854 454 b 453 0 854 150 783 0 l 210 0 b 143 61 164 0 143 13 l 143 414 b 54 510 53 414 54 425 b 143 564 54 564 104 564 l 143 871 b 210 928 143 918 168 928 l 453 928 b 671 899 524 928 604 925 b 854 454 844 831 854 613 m 663 464 b 576 747 663 551 672 704 b 425 767 540 764 465 767 b 329 763 393 767 361 765 l 329 564 l 450 564 b 513 485 511 564 513 536 b 450 414 513 435 504 414 l 329 414 l 329 165 b 425 161 361 163 393 161 b 525 168 458 161 492 163 b 657 331 619 185 647 240 b 663 451 663 371 663 411 l 663 464 "},"½":{"ha":1178,"x_min":0,"x_max":0,"o":"m 1107 43 b 1058 0 1107 13 1086 0 l 801 0 b 756 67 754 0 756 29 b 803 139 756 97 782 119 b 975 351 847 182 975 290 b 939 385 975 381 967 385 b 868 379 915 385 892 383 b 828 372 854 376 842 372 b 782 443 790 372 782 413 b 826 483 782 468 804 479 b 939 492 864 489 901 492 b 1104 363 1025 492 1104 461 b 932 106 1104 251 1010 172 b 1058 108 974 107 1017 108 b 1107 43 1104 108 1107 81 m 892 921 b 886 901 892 914 889 907 l 381 -32 b 342 -56 372 -47 358 -56 b 326 -53 336 -56 331 -56 l 272 -21 b 260 8 263 -15 260 -3 b 264 28 260 15 261 22 l 771 961 b 808 985 779 975 792 985 b 878 950 829 985 858 961 b 892 921 888 944 892 932 m 303 508 b 257 464 303 479 286 464 l 232 464 b 176 508 200 464 176 471 l 176 821 b 142 810 168 818 149 810 b 100 872 107 810 100 844 b 133 910 100 893 117 903 b 257 946 168 925 219 946 b 303 901 283 946 303 928 l 303 508 "},"±":{"ha":763,"x_min":0,"x_max":0,"o":"m 444 388 l 444 151 l 318 151 l 318 388 l 75 388 l 75 508 l 318 508 l 318 744 l 444 744 l 444 508 l 688 508 l 688 388 m 75 -72 l 75 47 l 688 47 l 688 -72 "},"Þ":{"ha":761,"x_min":0,"x_max":0,"o":"m 728 469 b 279 167 728 140 540 167 l 279 61 b 219 0 279 21 261 0 l 161 0 b 93 61 115 0 93 13 l 93 871 b 219 928 93 944 169 928 b 279 867 261 928 279 907 l 279 794 l 418 794 b 656 729 511 794 586 800 b 728 469 718 665 728 554 m 543 479 b 506 625 543 514 544 606 b 394 635 485 636 419 635 b 333 635 374 635 354 635 b 279 589 299 635 279 628 l 279 325 l 436 325 b 526 351 464 325 507 326 b 543 479 546 378 543 449 "},"¼":{"ha":1178,"x_min":0,"x_max":0,"o":"m 1043 44 b 999 0 1043 15 1028 0 l 983 0 b 929 44 951 0 929 7 l 929 110 l 763 110 b 714 168 725 110 722 140 b 711 185 713 174 711 179 b 724 215 711 197 717 207 l 921 461 b 958 482 931 472 943 482 l 999 482 b 1043 438 1026 482 1043 464 l 1043 213 b 1104 165 1081 213 1104 208 b 1043 110 1104 117 1088 110 m 892 921 b 886 901 892 914 889 907 l 381 -32 b 342 -56 372 -47 358 -56 b 326 -53 336 -56 331 -56 l 272 -21 b 260 8 263 -15 260 -3 b 264 28 260 15 261 22 l 771 961 b 808 985 779 975 792 985 b 878 950 829 985 858 961 b 892 921 888 944 892 932 m 303 508 b 257 464 303 479 286 464 l 232 464 b 176 508 200 464 176 471 l 176 821 b 142 810 168 818 149 810 b 100 872 107 810 100 844 b 133 910 100 893 117 903 b 257 946 168 925 219 946 b 303 901 283 946 303 928 l 303 508 m 929 317 l 840 207 b 929 210 869 208 900 208 "},"÷":{"ha":763,"x_min":0,"x_max":0,"o":"m 457 568 b 369 478 457 519 418 478 b 283 568 321 478 283 521 b 369 658 283 617 319 658 b 457 568 418 658 457 615 m 79 272 l 79 393 l 683 393 l 683 272 m 457 97 b 369 7 457 49 418 7 b 283 97 321 7 283 50 b 369 188 283 146 319 188 b 457 97 418 188 457 144 "},"¦":{"ha":271,"x_min":0,"x_max":0,"o":"m 71 522 l 71 971 l 200 971 l 200 522 m 71 -46 l 71 403 l 200 403 l 200 -46 "},"°":{"ha":556,"x_min":0,"x_max":0,"o":"m 456 799 b 278 614 456 699 379 614 b 100 799 176 614 100 700 b 278 983 100 900 175 983 b 456 799 379 983 456 897 m 360 799 b 278 882 360 844 325 882 b 199 799 232 882 199 843 b 278 715 199 756 233 715 b 360 799 324 715 360 753 "},"þ":{"ha":786,"x_min":0,"x_max":0,"o":"m 707 344 b 668 117 707 267 706 186 b 401 -18 615 17 508 -18 b 275 -4 358 -18 317 -14 l 275 -226 b 171 -290 275 -301 229 -290 b 97 -226 121 -290 97 -282 l 97 894 b 158 956 97 939 114 956 l 221 956 b 275 894 258 956 275 929 l 275 621 b 482 686 339 656 408 686 b 707 344 682 686 707 503 m 528 342 b 514 493 528 389 526 447 b 460 539 507 522 492 539 b 275 465 406 539 321 494 l 275 149 b 404 129 317 136 361 129 b 468 139 426 129 447 131 b 528 342 526 164 528 290 "},"¾":{"ha":1178,"x_min":0,"x_max":0,"o":"m 1043 44 b 999 0 1043 15 1028 0 l 983 0 b 929 44 951 0 929 7 l 929 110 l 763 110 b 714 168 725 110 722 140 b 711 185 713 174 711 179 b 724 215 711 197 717 207 l 921 461 b 958 482 931 472 943 482 l 999 482 b 1043 438 1026 482 1043 464 l 1043 213 b 1104 165 1081 213 1104 208 b 1043 110 1104 117 1088 110 m 919 921 b 914 901 919 914 917 907 l 408 -32 b 369 -56 400 -47 386 -56 b 354 -53 364 -56 358 -56 l 300 -21 b 288 8 290 -15 288 -3 b 292 28 288 15 289 22 l 799 961 b 836 985 807 975 819 985 b 906 950 857 985 886 961 b 919 921 915 944 919 932 m 417 607 b 239 446 417 492 347 446 b 64 506 203 446 64 456 b 114 579 64 533 81 579 b 129 576 119 579 124 578 b 243 554 167 565 203 554 b 290 606 283 554 290 567 b 254 644 290 635 282 640 b 171 647 226 649 199 647 b 113 715 111 647 113 664 b 201 753 113 763 171 753 b 272 806 254 753 272 750 b 224 842 272 842 257 842 b 158 836 201 842 181 839 b 131 832 150 835 139 832 b 90 894 93 832 96 868 b 89 906 89 899 89 901 b 221 946 89 951 192 946 b 397 811 315 946 397 921 b 367 718 397 776 390 744 b 417 607 407 692 417 653 m 929 317 l 840 207 b 929 210 869 208 900 208 "},"²":{"ha":478,"x_min":0,"x_max":0,"o":"m 417 497 b 368 454 417 467 396 454 l 111 454 b 65 521 64 454 65 483 b 113 593 65 551 92 574 b 285 806 157 636 285 744 b 249 839 285 835 276 839 b 178 833 225 839 200 838 b 138 826 164 831 151 826 b 92 897 100 826 92 867 b 136 938 92 922 114 933 b 249 946 174 943 211 946 b 414 817 335 946 414 915 b 242 560 414 706 319 626 b 368 563 283 561 326 563 b 417 497 414 563 417 535 "},"®":{"ha":1332,"x_min":0,"x_max":0,"o":"m 1249 339 b 654 -287 1249 -64 1069 -287 b 232 -132 496 -287 343 -251 b 83 332 110 0 83 158 b 232 796 83 506 110 664 b 656 951 343 917 497 951 b 1249 339 1061 951 1249 738 m 1074 326 b 993 675 1074 446 1050 568 b 669 810 935 786 783 810 b 339 676 556 810 400 786 b 261 332 285 579 261 442 b 339 -12 261 222 285 85 b 672 -146 400 -122 558 -146 b 993 -11 786 -146 933 -121 b 1074 326 1047 92 1074 211 m 933 54 b 893 24 933 31 913 24 l 835 24 b 769 50 807 24 788 28 l 608 243 l 588 243 l 588 69 b 497 24 588 14 536 24 b 444 69 463 24 444 32 l 444 596 b 497 640 444 632 465 640 l 678 640 b 849 596 743 640 799 644 b 901 421 893 551 901 481 b 778 249 901 333 869 267 l 918 90 b 933 54 926 81 933 67 m 758 428 b 736 517 758 447 758 506 b 671 522 725 522 685 522 l 643 522 b 588 496 619 522 588 528 l 588 360 l 690 360 b 758 428 749 360 758 371 "},"−":{"ha":779,"x_min":0,"x_max":0,"o":"m 71 293 l 71 431 l 708 431 l 708 293 "},"ð":{"ha":792,"x_min":0,"x_max":0,"o":"m 714 317 b 396 -18 714 106 614 -18 b 78 317 176 -18 78 103 b 382 654 78 518 167 654 b 519 611 431 654 479 639 b 421 763 506 671 472 728 b 326 688 400 739 360 688 b 256 751 303 688 256 726 b 293 808 256 769 281 796 b 190 924 172 808 190 801 b 193 940 190 929 190 936 b 274 954 204 957 258 954 b 410 936 319 954 365 949 b 463 976 422 951 440 976 b 538 917 486 976 538 942 b 524 883 538 904 532 893 b 714 317 697 783 714 494 m 535 317 b 510 464 535 363 532 422 b 411 508 488 504 453 508 l 378 508 b 282 464 336 508 304 504 b 257 317 260 424 257 361 b 285 165 257 272 261 204 b 382 128 306 131 344 128 l 410 128 b 504 160 442 128 485 131 b 535 317 531 200 535 269 "},"×":{"ha":711,"x_min":0,"x_max":0,"o":"m 547 44 l 356 232 l 164 44 l 63 146 l 253 332 l 63 519 l 164 621 l 356 433 l 547 621 l 649 519 l 458 332 l 649 146 "},"³":{"ha":478,"x_min":0,"x_max":0,"o":"m 417 607 b 239 446 417 492 347 446 b 64 506 203 446 64 456 b 114 579 64 533 81 579 b 129 576 119 579 124 578 b 243 554 167 565 203 554 b 290 606 283 554 290 567 b 254 644 290 635 282 640 b 171 647 226 649 199 647 b 113 715 111 647 113 664 b 201 753 113 763 171 753 b 272 806 254 753 272 750 b 224 842 272 842 257 842 b 158 836 201 842 181 839 b 131 832 150 835 139 832 b 90 894 93 832 96 868 b 89 906 89 899 89 901 b 221 946 89 951 192 946 b 397 811 315 946 397 921 b 367 718 397 776 390 744 b 417 607 407 692 417 653 "},"©":{"ha":1332,"x_min":0,"x_max":0,"o":"m 1249 339 b 654 -287 1249 -64 1069 -287 b 232 -132 496 -287 343 -251 b 83 332 110 0 83 158 b 232 796 83 506 110 664 b 656 951 343 917 497 951 b 1249 339 1058 951 1249 735 m 1074 326 b 993 675 1074 446 1050 568 b 669 810 935 786 783 810 b 339 676 556 810 400 786 b 261 332 285 579 261 442 b 339 -12 261 222 285 85 b 671 -146 400 -122 557 -146 b 993 -11 785 -146 933 -121 b 1074 326 1047 92 1074 211 m 869 44 b 814 6 869 11 840 8 b 703 1 776 3 740 1 b 414 313 476 1 414 94 b 703 635 414 539 469 635 b 814 631 740 635 776 633 b 869 592 840 628 869 625 l 869 563 b 826 511 869 529 864 511 b 721 515 792 511 756 515 b 618 504 694 515 642 514 b 563 351 564 482 564 401 b 561 290 563 331 561 311 b 647 124 561 225 568 138 b 721 121 671 119 697 121 b 826 125 756 121 792 125 b 869 44 878 125 869 83 "},"Á":{"ha":872,"x_min":0,"x_max":0,"o":"m 629 1239 b 614 1210 629 1228 621 1218 b 456 1038 583 1174 488 1051 b 417 1029 442 1032 431 1029 l 371 1029 b 307 1057 350 1029 307 1026 b 457 1263 307 1078 433 1244 b 519 1271 468 1272 506 1271 b 629 1239 542 1271 629 1276 m 846 42 b 796 0 846 11 824 0 l 719 0 b 654 49 683 0 665 15 l 593 222 b 268 222 485 219 376 219 l 213 58 b 78 0 188 -17 150 0 b 24 33 51 0 24 1 b 35 76 24 44 31 65 l 319 871 b 458 933 347 947 385 933 b 540 872 507 933 524 917 l 840 63 b 846 42 843 56 846 49 m 429 693 l 318 365 l 540 365 "},"Â":{"ha":872,"x_min":0,"x_max":0,"o":"m 653 1063 b 560 1032 653 1036 575 1032 b 528 1036 549 1032 538 1032 b 478 1096 507 1044 490 1078 b 435 1154 464 1117 450 1135 b 392 1096 419 1135 406 1117 b 342 1036 382 1081 360 1043 b 310 1032 332 1032 321 1032 b 217 1063 294 1032 217 1036 b 226 1088 217 1071 221 1081 l 325 1224 b 435 1282 365 1279 365 1282 b 544 1224 504 1282 504 1279 l 643 1088 b 653 1063 649 1081 653 1071 m 846 42 b 796 0 846 11 824 0 l 719 0 b 654 49 683 0 665 15 l 593 222 b 268 222 485 219 376 219 l 213 58 b 78 0 188 -17 150 0 b 24 33 51 0 24 1 b 35 76 24 44 31 65 l 319 871 b 458 933 347 947 385 933 b 540 872 507 933 524 917 l 840 63 b 846 42 843 56 846 49 m 429 693 l 318 365 l 540 365 "},"Ä":{"ha":872,"x_min":0,"x_max":0,"o":"m 654 1092 b 614 1050 654 1069 636 1050 l 524 1050 b 483 1092 501 1050 483 1069 l 483 1185 b 524 1228 483 1207 500 1228 l 614 1228 b 654 1185 638 1228 654 1207 l 654 1092 m 393 1092 b 353 1050 393 1069 375 1050 l 263 1050 b 222 1092 240 1050 222 1069 l 222 1185 b 263 1228 222 1207 239 1228 l 353 1228 b 393 1185 376 1228 393 1207 l 393 1092 m 846 42 b 796 0 846 11 824 0 l 719 0 b 654 49 683 0 665 15 l 593 222 b 268 222 485 219 376 219 l 213 58 b 78 0 188 -17 150 0 b 24 33 51 0 24 1 b 35 76 24 44 31 65 l 319 871 b 458 933 347 947 385 933 b 540 872 507 933 524 917 l 840 63 b 846 42 843 56 846 49 m 429 693 l 318 365 l 540 365 "},"À":{"ha":872,"x_min":0,"x_max":0,"o":"m 582 1058 b 528 1031 582 1031 547 1031 l 471 1031 b 436 1038 458 1031 449 1033 b 340 1135 400 1053 364 1104 b 260 1240 324 1154 260 1218 b 368 1272 260 1278 344 1272 b 432 1264 385 1272 418 1274 b 582 1058 453 1250 582 1078 m 846 42 b 796 0 846 11 824 0 l 719 0 b 654 49 683 0 665 15 l 593 222 b 268 222 485 219 376 219 l 213 58 b 78 0 188 -17 150 0 b 24 33 51 0 24 1 b 35 76 24 44 31 65 l 319 871 b 458 933 347 947 385 933 b 540 872 507 933 524 917 l 840 63 b 846 42 843 56 846 49 m 429 693 l 318 365 l 540 365 "},"Å":{"ha":872,"x_min":0,"x_max":0,"o":"m 558 1192 b 435 1064 558 1122 506 1064 b 311 1192 365 1064 311 1124 b 435 1319 311 1261 364 1319 b 558 1192 504 1319 558 1260 m 846 42 b 796 0 846 11 824 0 l 719 0 b 654 49 683 0 665 15 l 593 222 b 268 222 485 219 376 219 l 213 58 b 78 0 188 -17 150 0 b 24 33 51 0 24 1 b 35 76 24 44 31 65 l 319 871 b 458 933 347 947 385 933 b 540 872 507 933 524 917 l 840 63 b 846 42 843 56 846 49 m 489 1192 b 435 1247 489 1221 465 1247 b 382 1192 404 1247 382 1222 b 435 1138 382 1161 404 1138 b 489 1192 464 1138 489 1164 m 429 693 l 318 365 l 540 365 "},"Ã":{"ha":872,"x_min":0,"x_max":0,"o":"m 683 1199 b 669 1156 683 1185 675 1168 b 532 1053 642 1099 600 1053 b 361 1096 467 1053 413 1096 b 268 1047 325 1096 328 1047 l 222 1047 b 199 1071 207 1047 199 1057 b 218 1128 199 1088 210 1114 b 353 1229 247 1181 288 1229 b 528 1188 417 1229 482 1188 b 581 1225 553 1188 563 1213 b 644 1231 594 1235 628 1231 b 683 1199 667 1231 683 1224 m 846 42 b 796 0 846 11 824 0 l 719 0 b 654 49 683 0 665 15 l 593 222 b 268 222 485 219 376 219 l 213 58 b 78 0 188 -17 150 0 b 24 33 51 0 24 1 b 35 76 24 44 31 65 l 319 871 b 458 933 347 947 385 933 b 540 872 507 933 524 917 l 840 63 b 846 42 843 56 846 49 m 429 693 l 318 365 l 540 365 "},"Ç":{"ha":785,"x_min":0,"x_max":0,"o":"m 718 39 b 646 -8 718 -4 679 -6 b 529 -15 607 -11 568 -14 b 521 -35 528 -22 525 -29 l 431 -156 b 308 -192 394 -203 363 -192 b 263 -160 282 -192 263 -189 b 281 -122 263 -146 271 -132 l 386 -10 b 301 8 358 -6 329 0 b 88 453 103 71 88 275 b 269 906 88 611 99 833 b 488 938 336 933 417 938 b 646 931 540 938 593 935 b 718 882 681 928 718 925 l 718 836 b 665 769 718 793 714 769 b 515 776 615 769 565 776 b 364 757 474 776 401 774 b 279 451 267 715 279 538 b 408 151 279 343 271 178 b 515 146 443 144 481 146 b 665 153 565 146 615 153 b 718 86 714 153 718 129 l 718 39 "},"É":{"ha":747,"x_min":0,"x_max":0,"o":"m 586 1239 b 571 1210 586 1228 578 1218 b 413 1038 540 1175 444 1051 b 374 1029 399 1032 388 1029 l 328 1029 b 264 1057 307 1029 264 1026 b 414 1263 264 1075 393 1247 b 476 1271 426 1271 463 1271 b 586 1239 499 1271 586 1276 m 661 57 b 601 0 661 15 640 0 l 172 0 b 104 61 126 0 104 13 l 104 871 b 172 928 104 918 131 928 l 601 928 b 661 833 668 928 661 886 b 601 768 661 790 649 768 b 290 772 497 768 394 769 l 290 556 b 571 560 383 557 478 560 b 631 475 632 560 631 522 b 571 410 631 432 618 410 b 290 414 478 410 383 413 l 290 156 b 601 160 394 158 497 160 b 661 57 671 160 661 107 "},"Ê":{"ha":747,"x_min":0,"x_max":0,"o":"m 610 1063 b 517 1032 610 1036 532 1032 b 485 1036 506 1032 494 1032 b 435 1096 465 1043 446 1079 b 392 1154 421 1117 407 1135 b 349 1096 376 1135 363 1117 b 299 1036 336 1078 319 1044 b 267 1032 289 1032 278 1032 b 174 1063 251 1032 174 1036 b 183 1088 174 1071 178 1081 l 282 1224 b 392 1282 322 1279 322 1282 b 501 1224 461 1282 461 1279 l 600 1088 b 610 1063 606 1081 610 1071 m 661 57 b 601 0 661 15 640 0 l 172 0 b 104 61 126 0 104 13 l 104 871 b 172 928 104 918 131 928 l 601 928 b 661 833 668 928 661 886 b 601 768 661 790 649 768 b 290 772 497 768 394 769 l 290 556 b 571 560 383 557 478 560 b 631 475 632 560 631 522 b 571 410 631 432 618 410 b 290 414 478 410 383 413 l 290 156 b 601 160 394 158 497 160 b 661 57 671 160 661 107 "},"Ë":{"ha":747,"x_min":0,"x_max":0,"o":"m 606 1092 b 565 1050 606 1069 588 1050 l 475 1050 b 435 1092 453 1050 435 1069 l 435 1185 b 475 1228 435 1207 451 1228 l 565 1228 b 606 1185 589 1228 606 1207 l 606 1092 m 344 1092 b 304 1050 344 1069 326 1050 l 214 1050 b 174 1092 192 1050 174 1069 l 174 1185 b 214 1228 174 1207 190 1228 l 304 1228 b 344 1185 328 1228 344 1207 l 344 1092 m 661 57 b 601 0 661 15 640 0 l 172 0 b 104 61 126 0 104 13 l 104 871 b 172 928 104 918 131 928 l 601 928 b 661 833 668 928 661 886 b 601 768 661 790 649 768 b 290 772 497 768 394 769 l 290 556 b 571 560 383 557 478 560 b 631 475 632 560 631 522 b 571 410 631 432 618 410 b 290 414 478 410 383 413 l 290 156 b 601 160 394 158 497 160 b 661 57 671 160 661 107 "},"È":{"ha":747,"x_min":0,"x_max":0,"o":"m 503 1058 b 449 1031 503 1031 469 1031 l 392 1031 b 357 1038 379 1031 369 1032 b 261 1135 322 1051 285 1106 b 181 1240 244 1154 181 1218 b 289 1272 181 1278 265 1272 b 353 1264 306 1272 339 1274 b 503 1058 374 1250 503 1076 m 661 57 b 601 0 661 15 640 0 l 172 0 b 104 61 126 0 104 13 l 104 871 b 172 928 104 918 131 928 l 601 928 b 661 833 668 928 661 886 b 601 768 661 790 649 768 b 290 772 497 768 394 769 l 290 556 b 571 560 383 557 478 560 b 631 475 632 560 631 522 b 571 410 631 432 618 410 b 290 414 478 410 383 413 l 290 156 b 601 160 394 158 497 160 b 661 57 671 160 661 107 "},"Í":{"ha":415,"x_min":0,"x_max":0,"o":"m 369 1239 b 354 1210 369 1228 361 1218 b 196 1038 322 1174 229 1051 b 157 1029 182 1032 172 1029 l 111 1029 b 46 1057 90 1029 46 1026 b 196 1263 46 1072 178 1249 b 258 1271 208 1271 244 1271 b 369 1239 281 1271 369 1276 m 306 61 b 246 0 306 21 286 0 l 186 0 b 118 61 140 0 118 13 l 118 871 b 185 928 118 918 143 928 l 244 928 b 304 871 283 928 304 911 l 304 61 l 306 61 "},"Î":{"ha":415,"x_min":0,"x_max":0,"o":"m 426 1063 b 333 1032 426 1036 349 1032 b 301 1036 322 1032 311 1032 b 251 1096 281 1044 263 1078 b 208 1154 238 1117 224 1135 b 165 1096 193 1135 179 1117 b 115 1036 154 1079 135 1044 b 83 1032 106 1032 94 1032 b -11 1063 68 1032 -11 1036 b -1 1088 -11 1071 -7 1081 l 97 1224 b 207 1282 138 1279 138 1282 b 317 1224 276 1282 276 1279 l 415 1088 b 426 1063 421 1081 426 1071 m 294 61 b 235 0 294 21 275 0 l 175 0 b 107 61 129 0 107 13 l 107 871 b 174 928 107 918 132 928 l 233 928 b 293 871 272 928 293 911 l 293 61 l 294 61 "},"Ï":{"ha":415,"x_min":0,"x_max":0,"o":"m 424 1092 b 383 1050 424 1069 407 1050 l 293 1050 b 253 1092 271 1050 253 1069 l 253 1185 b 293 1228 253 1207 269 1228 l 383 1228 b 424 1185 407 1228 424 1208 l 424 1092 m 163 1092 b 122 1050 163 1069 146 1050 l 32 1050 b -8 1092 10 1050 -8 1069 l -8 1185 b 32 1228 -8 1207 8 1228 l 122 1228 b 163 1185 146 1228 163 1208 l 163 1092 m 289 61 b 229 0 289 21 271 0 l 169 0 b 103 61 124 0 103 13 l 103 871 b 169 928 103 917 129 928 l 229 928 b 289 871 268 928 289 911 l 289 61 "},"Ì":{"ha":415,"x_min":0,"x_max":0,"o":"m 369 1058 b 315 1031 369 1031 336 1031 l 258 1031 b 224 1038 246 1031 236 1032 b 128 1135 189 1051 151 1106 b 46 1240 113 1153 46 1221 b 154 1272 46 1278 131 1272 b 218 1264 171 1272 204 1274 b 369 1058 238 1251 369 1074 m 319 61 b 260 0 319 21 300 0 l 200 0 b 132 61 154 0 132 11 l 132 871 b 199 928 132 918 157 928 l 258 928 b 318 871 297 928 318 910 l 318 61 l 319 61 "},"Ñ":{"ha":961,"x_min":0,"x_max":0,"o":"m 701 1194 b 688 1151 701 1181 693 1164 b 550 1049 660 1094 617 1049 b 379 1092 483 1049 429 1092 b 286 1043 343 1092 346 1043 l 240 1043 b 217 1067 225 1043 217 1053 b 236 1124 217 1083 228 1110 b 371 1225 265 1178 306 1225 b 546 1183 435 1225 499 1183 b 599 1221 569 1183 582 1208 b 663 1226 613 1231 646 1226 b 701 1194 685 1226 701 1219 m 853 61 b 751 0 853 -10 803 0 b 674 29 717 0 697 0 b 632 88 658 47 646 68 b 535 225 599 133 567 179 b 283 593 450 347 367 471 l 283 61 b 167 0 283 -12 219 0 b 100 61 121 0 100 13 l 100 871 b 204 928 100 938 157 928 b 275 899 238 928 253 926 b 317 840 290 881 303 860 b 413 703 350 794 382 749 b 669 331 499 579 583 454 l 669 871 b 794 928 669 943 744 928 b 853 871 835 928 853 911 l 853 61 "},"Ó":{"ha":965,"x_min":0,"x_max":0,"o":"m 681 1239 b 665 1210 681 1228 672 1218 b 507 1038 633 1174 540 1051 b 468 1029 493 1032 483 1029 l 422 1029 b 358 1057 401 1029 358 1026 b 508 1263 358 1075 488 1247 b 571 1271 521 1271 557 1271 b 681 1239 593 1271 681 1276 m 876 463 b 481 -29 876 192 788 -29 b 85 463 171 -29 85 190 b 481 954 85 735 171 954 b 876 463 788 954 876 733 m 683 463 b 653 703 683 528 681 644 b 481 792 621 772 551 792 b 308 703 408 792 342 772 b 278 463 281 644 278 528 b 308 224 278 397 281 282 b 481 133 340 154 408 133 b 653 224 553 133 621 154 b 683 463 681 282 683 397 "},"Ô":{"ha":965,"x_min":0,"x_max":0,"o":"m 697 1063 b 604 1032 697 1036 619 1032 b 572 1036 593 1032 582 1032 b 522 1096 554 1043 532 1081 b 479 1154 508 1117 494 1135 b 436 1096 464 1135 450 1117 b 386 1036 424 1078 407 1044 b 354 1032 376 1032 365 1032 b 261 1063 339 1032 261 1036 b 271 1088 261 1071 265 1081 l 369 1224 b 479 1282 410 1279 410 1282 b 589 1224 549 1282 549 1279 l 688 1088 b 697 1063 693 1081 697 1071 m 876 463 b 481 -29 876 192 788 -29 b 85 463 171 -29 85 190 b 481 954 85 735 171 954 b 876 463 788 954 876 733 m 683 463 b 653 703 683 528 681 644 b 481 792 621 772 551 792 b 308 703 408 792 342 772 b 278 463 281 644 278 528 b 308 224 278 397 281 282 b 481 133 340 154 408 133 b 653 224 553 133 621 154 b 683 463 681 282 683 397 "},"Ö":{"ha":965,"x_min":0,"x_max":0,"o":"m 697 1092 b 657 1050 697 1069 679 1050 l 567 1050 b 526 1092 544 1050 526 1069 l 526 1185 b 567 1228 526 1207 543 1228 l 657 1228 b 697 1185 681 1228 697 1207 l 697 1092 m 436 1092 b 396 1050 436 1069 418 1050 l 306 1050 b 265 1092 283 1050 265 1069 l 265 1185 b 306 1228 265 1207 282 1228 l 396 1228 b 436 1185 419 1228 436 1207 l 436 1092 m 876 463 b 481 -29 876 192 788 -29 b 85 463 171 -29 85 190 b 481 954 85 735 171 954 b 876 463 788 954 876 733 m 683 463 b 653 703 683 528 681 644 b 481 792 621 772 551 792 b 308 703 408 792 342 772 b 278 463 281 644 278 528 b 308 224 278 397 281 282 b 481 133 340 154 408 133 b 653 224 553 133 621 154 b 683 463 681 282 683 397 "},"Ò":{"ha":965,"x_min":0,"x_max":0,"o":"m 628 1058 b 574 1031 628 1031 593 1031 l 517 1031 b 482 1038 504 1031 494 1032 b 386 1135 446 1053 410 1106 b 306 1240 369 1154 306 1218 b 414 1272 306 1278 390 1272 b 478 1264 431 1272 464 1274 b 628 1058 499 1250 628 1078 m 876 463 b 481 -29 876 192 788 -29 b 85 463 171 -29 85 190 b 481 954 85 735 171 954 b 876 463 788 954 876 733 m 683 463 b 653 703 683 528 681 644 b 481 792 621 772 551 792 b 308 703 408 792 342 772 b 278 463 281 644 278 528 b 308 224 278 397 281 282 b 481 133 340 154 408 133 b 653 224 553 133 621 154 b 683 463 681 282 683 397 "},"Õ":{"ha":965,"x_min":0,"x_max":0,"o":"m 735 1194 b 721 1151 735 1181 726 1164 b 583 1049 693 1094 650 1049 b 413 1092 517 1049 463 1092 b 319 1043 376 1092 378 1043 l 274 1043 b 250 1067 258 1043 250 1051 b 269 1124 250 1083 261 1110 b 404 1225 299 1178 339 1225 b 579 1183 468 1225 532 1183 b 632 1221 601 1183 615 1208 b 696 1226 646 1231 679 1226 b 735 1194 717 1226 735 1219 m 876 463 b 481 -29 876 192 788 -29 b 85 463 171 -29 85 190 b 481 954 85 735 171 954 b 876 463 788 954 876 733 m 683 463 b 653 703 683 528 681 644 b 481 792 621 772 551 792 b 308 703 408 792 342 772 b 278 463 281 644 278 528 b 308 224 278 397 281 282 b 481 133 340 154 408 133 b 653 224 553 133 621 154 b 683 463 681 282 683 397 "},"Š":{"ha":751,"x_min":0,"x_max":0,"o":"m 617 1265 b 607 1240 617 1257 613 1247 l 508 1104 b 399 1046 468 1049 468 1046 b 289 1104 329 1046 329 1049 l 190 1240 b 181 1265 185 1247 181 1257 b 274 1296 181 1292 258 1296 b 306 1292 285 1296 296 1296 b 356 1232 325 1285 344 1249 b 399 1174 369 1211 383 1193 b 442 1232 414 1193 428 1211 b 492 1292 454 1250 471 1283 b 524 1296 501 1296 513 1296 b 617 1265 539 1296 617 1292 m 692 286 b 665 92 692 231 692 140 b 378 -12 613 -7 476 -12 b 174 -3 310 -12 240 -11 b 101 46 140 1 101 4 l 101 93 b 154 160 101 136 106 160 b 399 149 236 160 317 149 b 510 239 482 149 510 149 b 494 340 510 264 514 321 b 461 360 486 350 472 354 b 286 433 403 385 344 408 b 113 689 139 497 113 525 b 250 915 113 801 135 876 b 443 938 310 935 381 938 b 600 931 496 938 549 935 b 674 882 633 928 674 925 l 674 836 b 619 769 674 792 668 769 b 529 775 589 769 558 774 b 369 778 475 778 422 778 b 294 676 292 778 294 742 b 343 594 294 626 297 617 b 457 546 381 576 419 563 b 589 485 501 526 547 508 b 692 286 679 436 692 385 "},"Ú":{"ha":944,"x_min":0,"x_max":0,"o":"m 689 1239 b 674 1210 689 1228 681 1218 b 515 1038 642 1174 550 1053 b 476 1029 501 1032 492 1029 l 431 1029 b 367 1057 410 1029 367 1026 b 517 1263 367 1075 496 1247 b 579 1271 529 1271 565 1271 b 689 1239 601 1271 689 1276 m 847 553 b 743 53 847 408 860 160 b 469 -21 674 -11 560 -21 b 197 53 378 -21 268 -11 b 93 531 82 158 93 388 l 93 871 b 160 928 93 918 118 928 l 218 928 b 279 871 257 928 279 910 l 279 461 b 308 210 279 388 276 278 b 469 142 339 144 406 142 b 632 210 533 142 601 144 b 661 461 664 278 661 389 l 661 871 b 731 928 661 919 689 928 l 790 928 b 847 871 831 928 847 910 l 847 553 "},"Û":{"ha":944,"x_min":0,"x_max":0,"o":"m 693 1063 b 600 1032 693 1036 615 1032 b 568 1036 589 1032 578 1032 b 518 1096 549 1043 529 1079 b 475 1154 504 1117 490 1135 b 432 1096 460 1135 446 1117 b 382 1036 419 1078 403 1044 b 350 1032 372 1032 361 1032 b 257 1063 335 1032 257 1036 b 267 1088 257 1071 261 1081 l 365 1224 b 475 1282 406 1279 406 1282 b 585 1224 544 1282 544 1279 l 683 1088 b 693 1063 689 1081 693 1071 m 847 553 b 743 53 847 408 860 160 b 469 -21 674 -11 560 -21 b 197 53 378 -21 268 -11 b 93 531 82 158 93 388 l 93 871 b 160 928 93 918 118 928 l 218 928 b 279 871 257 928 279 910 l 279 461 b 308 210 279 388 276 278 b 469 142 339 144 406 142 b 632 210 533 142 601 144 b 661 461 664 278 661 389 l 661 871 b 731 928 661 919 689 928 l 790 928 b 847 871 831 928 847 910 l 847 553 "},"Ü":{"ha":944,"x_min":0,"x_max":0,"o":"m 689 1092 b 649 1050 689 1069 671 1050 l 558 1050 b 518 1092 536 1050 518 1069 l 518 1185 b 558 1228 518 1207 535 1228 l 649 1228 b 689 1185 672 1228 689 1207 l 689 1092 m 428 1092 b 388 1050 428 1069 410 1050 l 297 1050 b 257 1092 275 1050 257 1069 l 257 1185 b 297 1228 257 1207 274 1228 l 388 1228 b 428 1185 411 1228 428 1207 l 428 1092 m 847 553 b 743 53 847 408 860 160 b 469 -21 674 -11 560 -21 b 197 53 378 -21 268 -11 b 93 531 82 158 93 388 l 93 871 b 160 928 93 918 118 928 l 218 928 b 279 871 257 928 279 910 l 279 461 b 308 210 279 388 276 278 b 469 142 339 144 406 142 b 632 210 533 142 601 144 b 661 461 664 278 661 389 l 661 871 b 731 928 661 919 689 928 l 790 928 b 847 871 831 928 847 910 l 847 553 "},"Ù":{"ha":944,"x_min":0,"x_max":0,"o":"m 585 1058 b 531 1031 585 1031 550 1031 l 474 1031 b 439 1038 461 1031 451 1032 b 343 1135 403 1053 367 1106 b 263 1240 326 1154 263 1218 b 371 1272 263 1278 347 1272 b 435 1264 388 1272 421 1274 b 585 1058 456 1250 585 1078 m 847 553 b 743 53 847 408 860 160 b 469 -21 674 -11 560 -21 b 197 53 378 -21 268 -11 b 93 531 82 158 93 388 l 93 871 b 160 928 93 918 118 928 l 218 928 b 279 871 257 928 279 910 l 279 461 b 308 210 279 388 276 278 b 469 142 339 144 406 142 b 632 210 533 142 601 144 b 661 461 664 278 661 389 l 661 871 b 731 928 661 919 689 928 l 790 928 b 847 871 831 928 847 910 l 847 553 "},"Ý":{"ha":854,"x_min":0,"x_max":0,"o":"m 661 1239 b 646 1210 661 1228 653 1218 b 488 1038 614 1174 522 1053 b 449 1029 474 1032 464 1029 l 403 1029 b 339 1057 382 1029 339 1026 b 489 1263 339 1075 468 1247 b 551 1271 501 1271 538 1271 b 661 1239 574 1271 661 1276 m 829 882 b 810 828 829 865 818 843 l 546 360 l 546 61 b 426 0 546 -15 483 0 b 360 61 381 0 360 13 l 360 349 l 82 843 b 68 883 75 856 68 869 b 122 928 68 914 94 928 l 197 928 b 267 888 233 928 250 918 l 454 547 l 646 889 b 776 928 675 940 724 928 b 829 882 807 928 829 914 "},"Ÿ":{"ha":854,"x_min":0,"x_max":0,"o":"m 644 1094 b 604 1053 644 1072 628 1053 l 514 1053 b 474 1094 490 1053 474 1072 l 474 1188 b 514 1231 474 1210 490 1231 l 604 1231 b 644 1188 628 1231 644 1210 l 644 1094 m 383 1094 b 343 1053 383 1072 367 1053 l 253 1053 b 213 1094 229 1053 213 1072 l 213 1188 b 253 1231 213 1210 229 1231 l 343 1231 b 383 1188 367 1231 383 1210 l 383 1094 m 806 882 b 786 828 806 865 794 843 l 522 360 l 522 61 b 403 0 522 -14 458 0 b 336 61 357 0 336 13 l 336 349 l 58 843 b 44 883 51 856 44 869 b 99 928 44 914 71 928 l 174 928 b 243 888 210 928 226 918 l 431 547 l 622 889 b 753 928 651 942 700 928 b 806 882 782 928 806 914 "},"Ž":{"ha":800,"x_min":0,"x_max":0,"o":"m 643 1268 b 633 1243 643 1260 639 1250 l 535 1107 b 425 1049 494 1051 494 1049 b 315 1107 356 1049 356 1051 l 217 1243 b 207 1268 211 1250 207 1260 b 300 1299 207 1296 285 1299 b 332 1294 311 1299 322 1299 b 382 1235 351 1288 371 1251 b 425 1176 396 1215 410 1196 b 468 1235 440 1196 454 1215 b 518 1294 481 1253 497 1286 b 550 1299 528 1299 539 1299 b 643 1268 565 1299 643 1296 m 743 892 b 722 832 743 872 732 849 l 306 147 b 675 160 429 153 551 160 b 733 57 744 160 733 107 b 675 0 733 17 714 0 l 117 0 b 61 53 85 0 61 19 b 85 119 61 76 72 100 l 482 774 b 151 768 372 771 261 768 b 92 871 82 768 92 821 b 151 928 92 913 113 928 l 699 928 b 743 892 722 928 743 918 "},"á":{"ha":736,"x_min":0,"x_max":0,"o":"m 589 1024 b 574 994 589 1013 581 1003 b 415 822 543 960 447 836 b 376 814 401 817 390 814 l 331 814 b 267 842 310 814 267 811 b 417 1047 267 860 396 1032 b 479 1056 429 1056 465 1056 b 589 1024 501 1056 589 1061 m 642 60 b 586 0 642 19 628 0 l 508 0 b 468 50 476 0 469 22 b 263 -18 403 10 340 -18 b 64 189 126 -18 64 56 b 290 407 64 340 154 392 b 467 418 349 414 407 419 b 397 551 467 474 475 551 b 197 522 331 551 261 538 b 164 518 186 519 175 518 b 124 601 115 518 124 567 b 163 660 124 632 132 650 b 390 686 225 678 324 686 b 589 622 457 686 542 675 b 642 397 644 561 642 475 l 642 60 m 468 293 b 400 296 446 294 422 296 b 313 292 371 296 342 296 b 231 204 256 283 231 264 b 282 111 231 171 236 111 b 468 181 353 111 411 140 "},"â":{"ha":736,"x_min":0,"x_max":0,"o":"m 582 833 b 489 803 582 807 504 803 b 457 807 478 803 467 803 b 407 867 438 814 418 850 b 364 925 393 886 379 907 b 321 867 349 906 335 886 b 271 807 310 849 292 815 b 239 803 261 803 250 803 b 146 833 224 803 146 807 b 156 858 146 842 150 851 l 254 994 b 364 1053 294 1050 294 1053 b 474 994 433 1053 433 1050 l 572 858 b 582 833 578 850 582 844 m 642 60 b 586 0 642 21 628 0 l 508 0 b 468 50 476 0 468 21 b 263 -18 404 10 339 -18 b 64 189 126 -18 64 56 b 290 407 64 342 153 392 b 467 418 349 414 407 419 b 397 551 467 474 475 551 b 197 522 332 551 261 535 b 164 518 186 521 175 518 b 124 601 115 518 124 567 b 163 660 124 633 131 650 b 390 686 225 678 324 686 b 589 622 458 686 542 675 b 642 397 643 561 642 475 l 642 60 m 468 293 b 400 296 446 294 422 296 b 313 292 371 296 342 296 b 231 204 254 283 231 264 b 282 111 231 169 236 111 b 468 181 353 111 411 142 "},"ä":{"ha":736,"x_min":0,"x_max":0,"o":"m 603 854 b 563 813 603 832 585 813 l 472 813 b 432 854 449 813 432 832 l 432 947 b 472 990 432 971 449 990 l 563 990 b 603 947 586 990 603 969 l 603 854 m 342 854 b 301 813 342 832 324 813 l 211 813 b 171 854 188 813 171 832 l 171 947 b 211 990 171 971 188 990 l 301 990 b 342 947 325 990 342 969 l 342 854 m 642 60 b 586 0 642 21 628 0 l 508 0 b 468 50 476 0 468 21 b 263 -18 404 10 339 -18 b 64 189 126 -18 64 56 b 290 407 64 342 153 392 b 467 418 349 414 407 419 b 397 551 467 474 475 551 b 197 522 332 551 261 535 b 164 518 186 521 175 518 b 124 601 115 518 124 567 b 163 660 124 633 131 650 b 390 686 225 678 324 686 b 589 622 458 686 542 675 b 642 397 643 561 642 475 l 642 60 m 468 293 b 400 296 446 294 422 296 b 313 292 371 296 342 296 b 231 204 254 283 231 264 b 282 111 231 169 236 111 b 468 181 353 111 411 142 "},"à":{"ha":736,"x_min":0,"x_max":0,"o":"m 506 840 b 451 813 506 814 471 813 l 394 813 b 360 819 382 813 371 815 b 264 917 322 833 288 886 b 183 1022 249 936 183 1001 b 272 1054 183 1057 249 1054 b 356 1046 293 1054 339 1057 b 506 840 376 1032 506 858 m 642 60 b 586 0 642 19 628 0 l 508 0 b 468 50 476 0 469 22 b 263 -18 403 10 340 -18 b 64 189 126 -18 64 56 b 290 407 64 340 154 392 b 467 418 349 414 407 419 b 397 551 467 474 475 551 b 197 522 331 551 261 538 b 164 518 186 519 175 518 b 124 601 115 518 124 567 b 163 660 124 632 132 650 b 390 686 225 678 324 686 b 589 622 457 686 542 675 b 642 397 644 561 642 475 l 642 60 m 468 293 b 400 296 446 294 422 296 b 313 292 371 296 342 296 b 231 204 256 283 231 264 b 282 111 231 171 236 111 b 468 181 353 111 411 140 "},"å":{"ha":736,"x_min":0,"x_max":0,"o":"m 510 921 b 386 793 510 851 457 793 b 263 921 318 793 263 854 b 386 1049 263 989 317 1049 b 510 921 457 1049 510 990 m 642 60 b 586 0 642 21 628 0 l 508 0 b 468 50 476 0 468 21 b 263 -18 404 10 339 -18 b 64 189 126 -18 64 56 b 290 407 64 342 153 392 b 467 418 349 414 407 419 b 397 551 467 474 475 551 b 197 522 332 551 261 535 b 164 518 186 521 175 518 b 124 601 115 518 124 567 b 163 660 124 633 131 650 b 390 686 225 678 324 686 b 589 622 458 686 542 675 b 642 397 643 561 642 475 l 642 60 m 440 921 b 386 976 440 951 417 976 b 333 921 356 976 333 950 b 386 867 333 892 356 867 b 440 921 415 867 440 893 m 468 293 b 400 296 446 294 422 296 b 313 292 371 296 342 296 b 231 204 254 283 231 264 b 282 111 231 169 236 111 b 468 181 353 111 411 142 "},"ã":{"ha":736,"x_min":0,"x_max":0,"o":"m 622 953 b 608 910 622 939 614 922 b 472 807 581 853 540 807 b 301 850 406 807 351 850 b 247 811 278 850 265 824 b 163 801 226 796 186 801 b 139 825 147 801 139 810 b 158 882 139 842 150 868 b 293 983 188 936 228 983 b 467 942 357 983 421 942 b 519 979 492 942 501 968 b 583 985 533 989 567 985 b 622 953 606 985 622 978 m 642 60 b 586 0 642 21 628 0 l 508 0 b 468 50 476 0 468 21 b 263 -18 404 10 339 -18 b 64 189 126 -18 64 56 b 290 407 64 342 153 392 b 467 418 349 414 407 419 b 397 551 467 474 475 551 b 197 522 331 551 261 538 b 164 518 186 519 175 518 b 124 601 115 518 124 567 b 163 660 124 633 131 650 b 390 686 225 678 324 686 b 589 622 458 686 542 675 b 642 397 643 561 642 475 l 642 60 m 468 293 b 400 296 446 294 422 296 b 313 292 371 296 342 296 b 231 204 254 283 231 264 b 282 111 231 169 236 111 b 468 181 353 111 411 142 "},"ç":{"ha":664,"x_min":0,"x_max":0,"o":"m 588 39 b 511 -12 588 -10 556 -7 b 454 -17 492 -14 474 -15 b 447 -37 454 -24 451 -32 l 360 -156 b 296 -193 342 -181 328 -193 l 242 -193 b 197 -160 214 -193 197 -189 b 203 -144 197 -154 199 -149 b 313 -15 211 -122 292 -37 b 76 333 93 4 76 142 b 393 686 76 592 122 686 b 511 679 432 686 472 683 b 585 656 529 678 575 675 b 588 632 588 649 588 640 l 588 629 b 538 521 588 594 588 521 b 478 526 518 521 497 525 b 351 538 436 532 393 538 b 269 472 293 538 282 526 b 258 333 260 428 258 379 b 264 200 258 289 260 244 b 351 131 269 138 292 131 b 479 142 394 131 436 136 b 538 147 499 143 518 147 b 571 133 551 147 561 144 b 588 39 582 121 588 56 "},"é":{"ha":728,"x_min":0,"x_max":0,"o":"m 606 1025 b 590 996 606 1014 597 1004 b 432 824 563 963 461 836 b 393 815 418 818 407 815 l 347 815 b 283 843 326 815 283 813 b 433 1049 283 861 413 1033 b 496 1057 446 1057 482 1057 b 606 1025 518 1057 606 1063 m 650 361 b 592 276 650 307 654 276 l 253 276 l 253 257 b 382 118 251 156 276 118 b 551 140 439 118 496 128 b 600 150 568 144 583 150 b 640 61 639 150 640 88 b 590 0 640 22 629 8 b 381 -18 524 -14 449 -18 b 78 329 131 -18 78 100 b 374 686 78 553 122 686 b 650 361 603 686 650 568 m 481 425 b 374 547 481 511 468 547 b 253 399 260 547 253 499 l 481 399 "},"ê":{"ha":728,"x_min":0,"x_max":0,"o":"m 599 833 b 506 803 599 807 521 803 b 474 807 494 803 483 803 b 424 867 453 815 435 849 b 381 925 410 886 396 906 b 338 867 365 906 351 886 b 288 807 326 850 307 814 b 256 803 278 803 267 803 b 163 833 240 803 163 807 b 172 858 163 842 167 851 l 271 994 b 381 1053 311 1050 311 1053 b 490 994 450 1053 450 1050 l 589 858 b 599 833 594 851 599 842 m 650 361 b 592 276 650 307 654 276 l 253 276 l 253 257 b 382 118 251 156 276 118 b 551 140 439 118 496 128 b 600 150 568 144 583 150 b 640 61 639 150 640 88 b 590 0 640 22 629 8 b 381 -18 524 -14 449 -18 b 78 329 131 -18 78 100 b 374 686 78 553 122 686 b 650 361 603 686 650 568 m 481 425 b 374 547 481 511 468 547 b 253 399 260 547 253 499 l 481 399 "},"ë":{"ha":728,"x_min":0,"x_max":0,"o":"m 601 854 b 561 813 601 832 583 813 l 471 813 b 431 854 449 813 431 832 l 431 947 b 471 990 431 969 447 990 l 561 990 b 601 947 585 990 601 969 l 601 854 m 340 854 b 300 813 340 832 322 813 l 210 813 b 169 854 188 813 169 832 l 169 947 b 210 990 169 969 186 990 l 300 990 b 340 947 324 990 340 969 l 340 854 m 650 361 b 592 276 650 307 654 276 l 253 276 l 253 257 b 382 118 251 156 276 118 b 551 140 439 118 496 128 b 600 150 568 144 583 150 b 640 61 639 150 640 88 b 590 0 640 22 629 8 b 381 -18 524 -14 449 -18 b 78 329 131 -18 78 100 b 374 686 78 553 122 686 b 650 361 603 686 650 568 m 481 425 b 374 547 481 511 468 547 b 253 399 260 547 253 499 l 481 399 "},"è":{"ha":728,"x_min":0,"x_max":0,"o":"m 494 843 b 440 815 494 817 460 815 l 383 815 b 349 822 371 815 360 818 b 253 919 313 836 276 890 b 172 1025 236 939 172 1003 b 261 1057 172 1060 238 1057 b 344 1049 282 1057 328 1060 b 494 843 365 1035 494 861 m 650 361 b 592 276 650 307 654 276 l 253 276 l 253 257 b 382 118 251 156 276 118 b 551 140 439 118 496 128 b 600 150 568 144 583 150 b 640 61 639 150 640 88 b 590 0 640 22 629 8 b 381 -18 524 -14 449 -18 b 78 329 131 -18 78 100 b 374 686 78 553 122 686 b 650 361 603 686 650 568 m 481 425 b 374 547 481 511 468 547 b 253 399 260 547 253 499 l 481 399 "},"í":{"ha":383,"x_min":0,"x_max":0,"o":"m 399 1022 b 383 993 399 1011 390 1001 b 225 821 354 958 257 835 b 186 813 211 815 201 813 l 140 813 b 76 840 119 813 76 810 b 226 1046 76 857 206 1032 b 289 1054 239 1054 275 1054 b 399 1022 311 1054 399 1060 m 282 60 b 226 0 282 21 268 0 l 174 0 b 100 60 126 0 100 6 l 100 589 b 161 646 100 632 119 646 l 226 646 b 282 589 261 646 282 624 l 282 60 "},"î":{"ha":383,"x_min":0,"x_max":0,"o":"m 408 833 b 315 803 408 807 331 803 b 283 807 304 803 293 803 b 233 867 264 814 244 850 b 190 925 219 886 206 907 b 147 867 175 906 161 886 b 97 807 136 849 118 815 b 65 803 88 803 76 803 b -28 833 50 803 -28 807 b -18 858 -28 842 -24 851 l 81 994 b 190 1053 121 1050 121 1053 b 300 994 260 1053 260 1050 l 399 858 b 408 833 404 850 408 844 m 282 60 b 226 0 282 21 268 0 l 174 0 b 100 60 126 0 100 6 l 100 589 b 161 646 100 632 119 646 l 226 646 b 282 589 261 646 282 624 l 282 60 "},"ï":{"ha":383,"x_min":0,"x_max":0,"o":"m 408 854 b 368 813 408 832 390 813 l 278 813 b 238 854 256 813 238 832 l 238 947 b 278 990 238 969 254 990 l 368 990 b 408 947 392 990 408 969 l 408 854 m 147 854 b 107 813 147 832 129 813 l 17 813 b -24 854 -6 813 -24 832 l -24 947 b 17 990 -24 969 -7 990 l 107 990 b 147 947 131 990 147 969 l 147 854 m 282 60 b 226 0 282 21 268 0 l 174 0 b 100 60 126 0 100 6 l 100 589 b 161 646 100 632 119 646 l 226 646 b 282 589 261 646 282 624 l 282 60 "},"ì":{"ha":383,"x_min":0,"x_max":0,"o":"m 333 843 b 279 815 333 817 299 815 l 222 815 b 188 822 210 815 199 818 b 92 919 150 836 115 889 b 11 1025 75 939 11 1003 b 100 1057 11 1060 76 1057 b 183 1049 121 1057 167 1060 b 333 843 204 1035 333 861 m 282 60 b 226 0 282 21 268 0 l 174 0 b 100 60 126 0 100 6 l 100 589 b 161 646 100 632 119 646 l 226 646 b 282 589 261 646 282 624 l 282 60 "},"ñ":{"ha":768,"x_min":0,"x_max":0,"o":"m 622 953 b 608 910 622 939 614 922 b 471 807 582 853 539 807 b 300 850 403 807 350 850 b 246 811 275 850 264 825 b 161 801 226 797 185 801 b 138 825 146 801 138 811 b 157 882 138 842 150 868 b 292 983 185 935 226 983 b 467 942 356 983 419 942 b 519 979 492 942 501 968 b 583 985 533 989 567 985 b 622 953 606 985 622 978 m 674 61 b 569 0 674 -11 625 0 b 496 61 521 0 496 6 l 496 421 b 486 519 496 443 497 500 b 443 540 476 536 461 540 b 272 464 375 540 324 506 l 272 61 b 168 0 272 -12 225 0 b 94 61 119 0 94 6 l 94 606 b 156 665 94 649 113 665 l 218 665 b 265 622 249 665 258 650 b 460 686 326 663 386 686 b 674 493 586 686 674 625 l 674 61 "},"ó":{"ha":793,"x_min":0,"x_max":0,"o":"m 579 1022 b 564 993 579 1013 569 1001 b 406 821 540 963 432 832 b 367 813 393 815 381 813 l 321 813 b 257 840 300 813 257 810 b 407 1046 257 858 386 1031 b 469 1054 419 1054 456 1054 b 579 1022 492 1054 579 1060 m 715 333 b 397 -18 715 114 631 -18 b 78 333 165 -18 78 115 b 397 686 78 553 164 686 b 715 333 632 686 715 553 m 536 333 b 511 494 536 381 535 451 b 397 539 486 540 444 539 b 283 494 350 539 308 540 b 257 333 260 450 257 382 b 283 172 257 285 260 215 b 397 129 308 128 351 129 b 511 172 443 129 486 128 b 536 333 535 215 536 286 "},"ô":{"ha":793,"x_min":0,"x_max":0,"o":"m 608 833 b 515 803 608 807 531 803 b 483 807 504 803 493 803 b 433 867 464 814 444 850 b 390 925 419 886 406 906 b 347 867 375 906 361 886 b 297 807 336 849 318 815 b 265 803 288 803 276 803 b 172 833 250 803 172 807 b 182 858 172 842 176 851 l 281 994 b 390 1053 321 1050 321 1053 b 500 994 460 1053 460 1050 l 599 858 b 608 833 604 851 608 842 m 715 333 b 397 -18 715 114 631 -18 b 78 333 165 -18 78 115 b 397 686 78 553 164 686 b 715 333 632 686 715 553 m 536 333 b 511 494 536 381 535 451 b 397 539 486 540 444 539 b 283 494 350 539 308 540 b 257 333 260 450 257 382 b 283 172 257 285 260 215 b 397 129 308 128 351 129 b 511 172 443 129 486 128 b 536 333 535 215 536 286 "},"ö":{"ha":793,"x_min":0,"x_max":0,"o":"m 607 854 b 567 813 607 832 589 813 l 476 813 b 436 854 453 813 436 832 l 436 947 b 476 990 436 971 453 990 l 567 990 b 607 947 590 990 607 969 l 607 854 m 346 854 b 306 813 346 832 328 813 l 215 813 b 175 854 192 813 175 832 l 175 947 b 215 990 175 971 192 990 l 306 990 b 346 947 329 990 346 969 l 346 854 m 715 333 b 397 -18 715 114 631 -18 b 78 333 165 -18 78 115 b 397 686 78 553 164 686 b 715 333 632 686 715 553 m 536 333 b 511 494 536 381 535 451 b 397 539 486 540 444 539 b 283 494 350 539 308 540 b 257 333 260 450 257 382 b 283 172 257 285 260 215 b 397 129 308 128 351 129 b 511 172 443 129 486 128 b 536 333 535 215 536 286 "},"ò":{"ha":793,"x_min":0,"x_max":0,"o":"m 489 843 b 435 815 489 815 454 815 l 378 815 b 343 822 364 815 356 817 b 247 919 306 838 272 889 b 167 1025 231 939 167 1003 b 275 1057 167 1063 251 1057 b 339 1049 292 1057 325 1058 b 489 843 360 1035 489 861 m 715 333 b 397 -18 715 114 631 -18 b 78 333 165 -18 78 115 b 397 686 78 553 164 686 b 715 333 632 686 715 553 m 536 333 b 511 494 536 381 535 451 b 397 539 486 540 444 539 b 283 494 350 539 308 540 b 257 333 260 450 257 382 b 283 172 257 285 260 215 b 397 129 308 128 351 129 b 511 172 443 129 486 128 b 536 333 535 215 536 286 "},"õ":{"ha":793,"x_min":0,"x_max":0,"o":"m 626 953 b 613 910 626 939 618 922 b 475 807 585 853 543 807 b 304 850 408 807 354 850 b 250 811 279 850 268 825 b 165 801 231 797 189 801 b 142 825 150 801 142 811 b 161 882 142 842 153 868 b 296 983 190 935 231 983 b 471 942 360 983 424 942 b 524 979 496 942 506 967 b 588 985 538 989 571 985 b 626 953 610 985 626 978 m 715 333 b 397 -18 715 114 631 -18 b 78 333 165 -18 78 115 b 397 686 78 553 164 686 b 715 333 632 686 715 553 m 536 333 b 511 494 536 381 535 451 b 397 539 486 540 444 539 b 283 494 350 539 308 540 b 257 333 260 450 257 382 b 283 172 257 285 260 215 b 397 129 308 128 351 129 b 511 172 443 129 486 128 b 536 333 535 215 536 286 "},"š":{"ha":693,"x_min":0,"x_max":0,"o":"m 588 1033 b 578 1008 588 1024 583 1015 l 479 872 b 369 814 440 818 438 814 b 260 872 301 814 299 818 l 161 1008 b 151 1033 156 1015 151 1024 b 244 1064 151 1061 229 1064 b 276 1060 256 1064 267 1063 b 326 1000 296 1053 315 1017 b 369 942 340 981 356 961 b 413 1000 383 961 399 981 b 463 1060 424 1017 442 1053 b 494 1064 472 1063 483 1064 b 588 1033 510 1064 588 1061 m 631 197 b 369 -17 631 8 542 -17 b 171 -7 304 -17 236 -15 b 132 57 129 -1 132 17 l 132 82 b 172 146 131 113 135 146 b 244 138 196 146 221 140 b 389 131 292 133 340 131 b 458 182 435 131 458 131 b 450 228 458 196 460 217 b 294 283 439 242 317 275 b 215 315 268 293 240 303 b 117 472 143 351 117 392 b 432 683 117 686 261 683 b 535 681 467 683 500 683 b 604 613 585 676 604 667 b 553 526 604 572 607 526 b 481 532 529 526 504 531 b 369 538 443 536 407 538 b 289 483 317 538 289 544 b 296 456 289 472 289 465 b 471 392 310 438 442 401 b 631 197 579 356 631 318 "},"ú":{"ha":768,"x_min":0,"x_max":0,"o":"m 594 1018 b 579 989 594 1007 586 997 b 421 817 549 953 454 832 b 382 808 407 810 397 808 l 328 808 b 272 836 307 808 272 807 b 422 1042 272 856 400 1026 b 485 1050 435 1050 471 1050 b 594 1018 507 1050 594 1056 m 668 60 b 608 0 668 17 651 0 l 546 0 b 499 46 517 0 504 19 b 303 -19 436 6 378 -19 b 89 175 175 -19 89 42 l 89 604 b 194 665 89 678 139 665 b 267 604 243 665 267 658 l 267 246 b 319 128 267 203 257 128 b 490 204 389 128 438 164 l 490 604 b 596 665 490 678 540 665 b 668 604 644 665 668 658 l 668 60 "},"û":{"ha":768,"x_min":0,"x_max":0,"o":"m 592 833 b 499 803 592 807 514 803 b 467 807 488 803 476 803 b 417 867 446 815 428 849 b 374 925 403 886 389 906 b 331 867 358 907 344 886 b 281 807 319 850 300 814 b 249 803 271 803 260 803 b 156 833 233 803 156 807 b 165 858 156 842 160 851 l 264 994 b 374 1053 304 1050 304 1053 b 483 994 443 1053 443 1050 l 582 858 b 592 833 588 851 592 842 m 668 60 b 608 0 668 17 651 0 l 546 0 b 499 46 517 0 504 19 b 303 -19 436 6 378 -19 b 89 175 175 -19 89 42 l 89 604 b 194 665 89 678 139 665 b 267 604 243 665 267 658 l 267 246 b 319 128 267 203 257 128 b 490 204 389 128 438 164 l 490 604 b 596 665 490 678 540 665 b 668 604 644 665 668 658 l 668 60 "},"ü":{"ha":768,"x_min":0,"x_max":0,"o":"m 596 854 b 556 813 596 832 578 813 l 465 813 b 425 854 442 813 425 832 l 425 947 b 465 990 425 971 442 990 l 556 990 b 596 947 579 990 596 969 l 596 854 m 335 854 b 294 813 335 832 317 813 l 204 813 b 164 854 181 813 164 832 l 164 947 b 204 990 164 971 181 990 l 294 990 b 335 947 318 990 335 969 l 335 854 m 668 60 b 608 0 668 17 651 0 l 546 0 b 499 46 517 0 504 19 b 303 -19 436 6 378 -19 b 89 175 175 -19 89 42 l 89 604 b 194 665 89 678 139 665 b 267 604 243 665 267 658 l 267 246 b 319 128 267 203 257 128 b 490 204 389 128 438 164 l 490 604 b 596 665 490 678 540 665 b 668 604 644 665 668 658 l 668 60 "},"ù":{"ha":768,"x_min":0,"x_max":0,"o":"m 494 840 b 440 813 494 814 460 813 l 383 813 b 349 819 371 813 361 815 b 253 917 311 835 278 886 b 172 1022 236 936 172 1000 b 261 1054 172 1057 238 1054 b 344 1046 282 1054 328 1057 b 494 840 365 1032 494 858 m 668 60 b 608 0 668 17 651 0 l 546 0 b 499 46 517 0 504 19 b 303 -19 436 6 378 -19 b 89 175 175 -19 89 42 l 89 604 b 194 665 89 678 139 665 b 267 604 243 665 267 658 l 267 246 b 319 128 267 203 257 128 b 490 204 389 128 438 164 l 490 604 b 596 665 490 678 540 665 b 668 604 644 665 668 658 l 668 60 "},"ý":{"ha":732,"x_min":0,"x_max":0,"o":"m 604 1028 b 589 999 604 1017 596 1007 b 431 826 558 963 464 842 b 392 818 417 819 407 818 l 338 818 b 282 846 317 818 282 817 b 432 1051 282 865 410 1036 b 494 1060 444 1060 481 1060 b 604 1028 517 1060 604 1065 m 690 625 b 682 593 690 614 686 603 l 381 -244 b 313 -286 367 -282 350 -286 l 243 -286 b 194 -250 218 -286 194 -279 b 204 -217 194 -239 200 -228 l 308 29 l 81 606 b 75 628 78 613 75 619 b 124 665 75 651 103 665 l 186 665 b 264 626 224 665 251 667 l 389 233 l 507 611 b 643 665 529 681 581 665 b 690 625 668 665 690 653 "},"ÿ":{"ha":732,"x_min":0,"x_max":0,"o":"m 589 854 b 549 813 589 832 571 813 l 458 813 b 418 854 436 813 418 832 l 418 947 b 458 990 418 969 435 990 l 549 990 b 589 947 572 990 589 969 l 589 854 m 328 854 b 288 813 328 832 310 813 l 197 813 b 157 854 175 813 157 832 l 157 947 b 197 990 157 969 174 990 l 288 990 b 328 947 311 990 328 969 l 328 854 m 667 625 b 658 593 667 614 663 603 l 357 -244 b 289 -286 343 -282 326 -286 l 219 -286 b 171 -250 194 -286 171 -279 b 181 -217 171 -239 176 -228 l 285 29 l 57 606 b 51 628 54 614 51 619 b 100 665 51 651 79 665 l 163 665 b 240 626 200 665 228 667 l 365 233 l 483 611 b 619 665 506 681 557 665 b 667 625 644 665 667 653 "},"ž":{"ha":686,"x_min":0,"x_max":0,"o":"m 614 1033 b 604 1008 614 1024 610 1015 l 506 872 b 396 814 467 818 464 814 b 286 872 328 814 325 818 l 188 1008 b 178 1033 182 1015 178 1024 b 271 1064 178 1061 256 1064 b 303 1060 282 1064 293 1063 b 353 1000 322 1053 342 1017 b 396 942 367 981 382 961 b 439 1000 410 961 425 981 b 489 1060 450 1017 468 1053 b 521 1064 499 1063 510 1064 b 614 1033 536 1064 614 1061 m 664 58 b 604 0 664 18 643 0 l 176 0 b 122 74 126 0 122 33 b 146 135 122 96 133 117 l 432 526 b 201 514 356 521 278 514 b 142 607 136 514 142 558 b 201 665 142 647 163 665 l 607 665 b 654 579 663 665 654 619 b 638 532 654 563 647 546 l 349 140 b 604 151 433 146 519 151 b 664 58 669 151 664 107 "}," ":{"ha":313,"x_min":0,"x_max":0,"o":""},"­":{"ha":646,"x_min":0,"x_max":0,"o":"m 579 354 b 515 303 579 307 558 303 l 128 303 b 67 344 96 303 67 306 l 67 408 b 128 446 67 439 104 446 l 515 446 b 579 408 542 446 579 443 l 579 354 "},"ˉ":{"ha":404,"x_min":0,"x_max":0,"o":"m 404 842 b 346 771 404 793 400 771 l 57 771 b 0 829 14 771 0 788 l 0 850 b 57 904 0 883 24 904 l 346 904 b 404 842 392 904 404 885 "},"Ω":{"ha":1060,"x_min":0,"x_max":0,"o":"m 614 0 l 614 149 b 794 522 696 221 794 331 b 533 829 794 696 703 829 b 261 517 376 829 261 706 b 444 149 261 329 364 217 l 444 0 l 67 0 l 67 149 l 290 149 b 65 556 190 217 65 338 b 533 989 65 807 254 989 b 993 560 839 989 993 799 b 763 149 993 363 885 229 l 990 149 l 990 0 "},"μ":{"ha":768,"x_min":0,"x_max":0,"o":"m 671 60 b 611 0 671 17 654 0 l 549 0 b 501 46 519 0 507 19 b 314 -19 436 0 396 -19 b 269 -14 299 -19 283 -18 l 269 -228 b 213 -290 269 -271 258 -290 l 153 -290 b 92 -225 106 -290 92 -271 l 92 604 b 197 665 92 676 140 665 b 269 604 246 665 269 658 l 269 146 b 322 128 285 135 303 128 b 493 204 392 128 439 164 l 493 604 b 599 665 493 676 542 665 b 671 604 647 665 671 658 l 671 60 "},"π":{"ha":1025,"x_min":0,"x_max":0,"o":"m 964 17 b 829 -12 932 -1 889 -12 b 624 207 679 -12 624 86 l 624 561 l 435 561 l 435 207 b 407 0 435 111 425 50 l 221 0 b 250 221 240 58 250 138 l 250 561 b 111 526 210 561 146 546 b 61 643 97 557 74 613 b 293 694 103 668 188 694 l 956 694 l 956 561 l 808 561 l 808 232 b 883 121 808 165 826 121 b 932 133 903 121 919 126 "},"€":{"ha":785,"x_min":0,"x_max":0,"o":"m 735 38 b 663 -11 735 -6 697 -8 b 504 -18 610 -15 557 -18 b 114 290 276 -18 147 47 b 1 343 67 290 1 276 l 1 364 b 104 419 1 426 60 419 b 104 493 104 444 104 468 b 1 546 60 493 1 482 l 1 567 b 114 622 1 632 68 622 b 504 938 147 874 264 938 b 663 931 557 938 610 935 b 735 882 697 928 735 925 l 735 836 b 682 769 735 793 731 769 b 532 776 632 769 582 776 b 371 757 490 776 407 774 b 293 622 317 733 300 676 l 507 622 b 565 544 561 622 565 588 b 510 493 565 508 544 493 l 286 493 l 286 451 l 286 419 l 479 419 b 538 342 533 419 538 385 b 482 290 538 306 517 290 l 296 290 b 532 143 321 146 407 143 b 682 150 582 143 632 150 b 735 83 731 150 735 126 l 735 38 "},"ℓ":{"ha":739,"x_min":0,"x_max":0,"o":"m 643 68 b 429 -22 599 28 521 -22 b 283 33 364 -22 319 -3 b 225 215 243 75 225 150 l 225 308 b 146 232 199 282 172 257 b 94 314 129 260 111 286 b 225 440 138 357 182 397 l 225 718 b 443 1011 225 900 304 1011 b 608 840 564 1011 608 918 b 439 486 608 706 539 597 b 390 431 424 469 401 443 l 390 238 b 478 106 390 140 425 106 b 590 164 525 106 567 139 b 643 68 608 132 626 100 m 503 817 b 456 883 503 856 488 883 b 390 753 413 883 390 836 l 390 568 b 417 601 397 578 410 592 b 503 817 469 671 503 754 "},"Ω":{"ha":1060,"x_min":0,"x_max":0,"o":"m 614 0 l 614 149 b 794 522 696 221 794 331 b 533 829 794 696 703 829 b 261 517 376 829 261 706 b 444 149 261 329 364 217 l 444 0 l 67 0 l 67 149 l 290 149 b 65 556 190 217 65 338 b 533 989 65 807 254 989 b 993 560 839 989 993 799 b 763 149 993 363 885 229 l 990 149 l 990 0 "},"℮":{"ha":961,"x_min":0,"x_max":0,"o":"m 244 424 l 244 132 b 476 36 307 69 385 36 b 790 229 629 36 719 115 b 842 199 807 219 824 208 b 476 -17 757 69 657 -17 b 64 425 224 -17 64 182 b 479 865 64 668 221 865 b 897 424 740 865 892 667 m 711 717 b 478 813 651 775 567 813 b 244 718 386 813 306 781 l 244 478 l 711 478 "},"∂":{"ha":872,"x_min":0,"x_max":0,"o":"m 808 640 b 774 381 808 551 796 464 b 360 -15 710 158 569 -15 b 64 268 183 -15 64 103 b 431 683 64 547 260 683 b 624 592 525 683 594 640 l 626 592 b 631 664 629 615 631 636 b 443 879 631 796 564 879 b 299 839 393 879 339 864 b 260 958 285 879 272 918 b 474 1015 303 989 383 1015 b 808 640 685 1015 808 869 m 604 458 b 467 558 586 515 542 558 b 247 261 350 558 247 428 b 365 122 247 178 292 122 b 604 458 483 122 571 278 "},"∆":{"ha":936,"x_min":0,"x_max":0,"o":"m 17 0 l 17 78 b 346 972 126 376 236 674 l 592 972 b 918 78 700 674 810 376 l 918 0 m 699 150 b 488 739 628 346 558 543 b 464 826 475 776 468 810 l 458 826 b 436 743 456 811 449 778 b 225 150 367 544 294 347 l 699 150 "},"∏":{"ha":1092,"x_min":0,"x_max":0,"o":"m 794 -319 l 794 813 l 299 813 l 299 -319 l 111 -319 l 111 972 l 981 972 l 981 -319 "},"∑":{"ha":954,"x_min":0,"x_max":0,"o":"m 47 -319 l 47 -222 b 490 333 194 -36 343 147 b 72 867 351 510 213 689 l 72 972 l 876 972 l 876 824 l 314 824 b 692 336 440 661 565 499 b 290 -171 558 168 424 -1 l 907 -171 l 907 -319 "},"∕":{"ha":240,"x_min":0,"x_max":0,"o":"m 451 944 b 439 907 451 931 446 918 l -75 -26 b -117 -57 -83 -42 -97 -57 b -181 -25 -136 -57 -165 -35 b -211 10 -193 -17 -211 -8 b -196 51 -211 24 -203 40 l 319 985 b 360 1014 328 1000 342 1014 b 389 1003 371 1014 381 1008 b 451 944 407 992 451 972 "},"∙":{"ha":403,"x_min":0,"x_max":0,"o":"m 201 335 b 179 344 193 335 185 339 l 83 440 b 74 464 78 446 74 454 b 83 486 74 472 78 481 l 179 582 b 200 592 185 588 193 592 b 222 582 208 592 217 588 l 318 486 b 328 464 324 481 328 472 b 318 440 328 454 324 446 l 222 344 b 201 335 217 339 208 335 "},"√":{"ha":811,"x_min":0,"x_max":0,"o":"m 783 1013 b 488 -17 685 669 586 326 l 354 -17 b 163 417 290 128 226 272 b 79 364 135 399 107 382 b 28 454 63 394 44 424 b 236 588 97 497 167 543 b 419 165 297 446 358 306 b 660 1013 500 447 581 731 l 783 1013 "},"∞":{"ha":1197,"x_min":0,"x_max":0,"o":"m 1131 408 b 872 151 1131 261 1026 151 b 601 306 763 151 664 211 l 599 306 b 328 151 536 219 442 151 b 67 404 179 151 67 249 b 325 658 67 561 182 658 b 597 503 443 658 535 592 l 600 503 b 868 658 649 574 742 658 b 1131 408 1022 658 1131 556 m 992 406 b 858 535 992 475 950 535 b 668 406 779 535 719 482 b 861 274 717 326 783 274 b 992 406 950 274 992 338 m 529 406 b 336 535 481 481 411 535 b 206 404 253 535 206 476 b 339 274 206 331 260 274 b 529 406 415 274 482 332 "},"∫":{"ha":735,"x_min":0,"x_max":0,"o":"m 629 889 b 563 903 617 894 590 903 b 458 779 497 903 458 861 l 458 -47 b 200 -328 458 -222 369 -328 b 68 -307 156 -328 96 -319 b 103 -176 81 -262 92 -219 b 171 -189 119 -183 144 -189 b 275 -67 238 -189 275 -147 l 275 758 b 533 1042 275 933 360 1042 b 667 1017 585 1042 643 1029 b 629 889 654 974 642 932 "},"≈":{"ha":771,"x_min":0,"x_max":0,"o":"m 739 588 b 529 458 682 504 622 458 b 374 501 481 458 425 471 b 246 546 335 526 292 546 b 132 453 189 546 153 489 l 31 569 b 240 699 82 642 139 699 b 393 657 297 699 347 683 b 524 611 443 628 481 611 b 639 704 578 611 614 663 l 739 588 m 739 260 b 529 131 682 176 622 131 b 374 174 481 131 425 143 b 246 218 335 199 292 218 b 132 125 189 218 153 161 l 31 242 b 240 371 82 314 139 371 b 393 329 297 371 347 356 b 524 283 443 300 481 283 b 639 376 578 283 614 335 l 739 260 "},"≠":{"ha":697,"x_min":0,"x_max":0,"o":"m 351 179 l 286 32 l 131 32 l 197 179 l 67 179 l 67 303 l 243 303 l 297 419 l 67 419 l 67 544 l 346 544 l 428 713 l 582 713 l 500 544 l 631 544 l 631 419 l 451 419 l 399 303 l 631 303 l 631 179 "},"≤":{"ha":763,"x_min":0,"x_max":0,"o":"m -25 396 l -25 510 l 785 829 l 785 665 l 242 453 l 785 242 l 785 75 m -25 -153 l -25 -15 l 788 -15 l 788 -153 "},"≥":{"ha":763,"x_min":0,"x_max":0,"o":"m -22 75 l -22 242 l 521 453 l -22 665 l -22 829 l 786 510 l 786 396 m -24 -153 l -24 -15 l 774 -15 l 774 -153 "},"◊":{"ha":857,"x_min":0,"x_max":0,"o":"m 781 486 b 469 0 676 324 574 163 l 385 0 b 75 485 282 161 178 324 b 385 972 178 647 282 810 l 469 972 b 781 486 574 810 676 649 m 643 486 b 428 825 571 599 499 713 b 211 486 356 713 283 599 b 428 146 283 372 356 260 b 643 486 499 260 571 372 "}}}
